<?xml version="1.0" encoding="UTF-8" standalone="no"?>
<!-- Created with Inkscape (http://www.inkscape.org/) -->

<svg
   width="43.929592mm"
   height="50.831615mm"
   viewBox="0 0 43.929592 50.831615"
   version="1.1"
   id="svg5"
   inkscape:version="1.4.2 (ebf0e940d0, 2025-05-08)"
   sodipodi:docname="logo.svg"
   xmlns:inkscape="http://www.inkscape.org/namespaces/inkscape"
   xmlns:sodipodi="http://sodipodi.sourceforge.net/DTD/sodipodi-0.dtd"
   xmlns="http://www.w3.org/2000/svg"
   xmlns:svg="http://www.w3.org/2000/svg">
  <sodipodi:namedview
     id="namedview7"
     pagecolor="#ffffff"
     bordercolor="#000000"
     borderopacity="0.25"
     inkscape:pageshadow="2"
     inkscape:pageopacity="0.0"
     inkscape:pagecheckerboard="0"
     inkscape:document-units="mm"
     showgrid="false"
     showguides="true"
     inkscape:guide-bbox="true"
     inkscape:zoom="4"
     inkscape:cx="91.875001"
     inkscape:cy="80.125001"
     inkscape:window-width="1920"
     inkscape:window-height="1128"
     inkscape:window-x="0"
     inkscape:window-y="0"
     inkscape:window-maximized="1"
     inkscape:current-layer="svg5"
     fit-margin-top="0"
     fit-margin-left="0"
     fit-margin-right="0"
     fit-margin-bottom="0"
     inkscape:showpageshadow="2"
     inkscape:deskcolor="#d1d1d1">
    <sodipodi:guide
       position="12.717529,39.084416"
       orientation="0,-1"
       id="guide1005"
       inkscape:locked="false" />
    <sodipodi:guide
       position="23.960895,14.026529"
       orientation="0,-1"
       id="guide955"
       inkscape:locked="false" />
    <sodipodi:guide
       position="70.109863,40.852787"
       orientation="0,-1"
       id="guide1298"
       inkscape:locked="false" />
    <sodipodi:guide
       position="43.391657,13.019133"
       orientation="0,-1"
       id="guide1300"
       inkscape:locked="false" />
    <sodipodi:guide
       position="146.81303,-69.84215"
       orientation="1,0"
       id="guide5066"
       inkscape:locked="false" />
    <sodipodi:guide
       position="169.37843,-75.419341"
       orientation="1,0"
       id="guide5068"
       inkscape:locked="false" />
    <sodipodi:guide
       position="142.09859,-66.474969"
       orientation="1,0"
       id="guide5089"
       inkscape:locked="false" />
    <sodipodi:guide
       position="142.09859,-72.269267"
       orientation="0,-1"
       id="guide5186"
       inkscape:locked="false" />
    <sodipodi:guide
       position="151.66097,-76.785546"
       orientation="0,-1"
       id="guide5302"
       inkscape:locked="false" />
    <sodipodi:guide
       position="172.97351,-68.957328"
       orientation="0,-1"
       id="guide5532"
       inkscape:locked="false" />
    <sodipodi:guide
       position="177.93284,-68.233866"
       orientation="1,0"
       id="guide6636"
       inkscape:locked="false" />
    <sodipodi:guide
       position="179.1257,-62.485652"
       orientation="0,-1"
       id="guide6638"
       inkscape:locked="false" />
    <sodipodi:guide
       position="15.218191,13.497206"
       orientation="1,0"
       id="guide317730"
       inkscape:locked="false" />
    <sodipodi:guide
       position="21.964806,17.282257"
       orientation="1,0"
       id="guide47262"
       inkscape:locked="false" />
    <sodipodi:guide
       position="4.4979165,9.3581779"
       orientation="1,0"
       id="guide4557"
       inkscape:locked="false" />
    <sodipodi:guide
       position="0.53793368,25.415809"
       orientation="0,-1"
       id="guide3"
       inkscape:locked="false" />
  </sodipodi:namedview>
  <defs
     id="defs2">
    <inkscape:perspective
       sodipodi:type="inkscape:persp3d"
       inkscape:vp_x="0 : 389.7996 : 1"
       inkscape:vp_y="0 : 999.99992 : 0"
       inkscape:vp_z="1500 : 389.7996 : 1"
       inkscape:persp3d-origin="749.99998 : 95.754155 : 1"
       id="perspective4362" />
    <clipPath
       id="clp12">
      <path
         d="m 45.315,71.927 h 12.92 v 15.867 h -12.92 z"
         id="path184"
         inkscape:connector-curvature="0" />
    </clipPath>
    <clipPath
       id="clp21">
      <path
         d="m 123.91,72.178 h 26.23 v 15.294 h -26.23 z"
         id="path592"
         inkscape:connector-curvature="0" />
    </clipPath>
    <clipPath
       id="clp9">
      <path
         d="m 413.96,49.857 h 31.76 v 8.719 h -31.76 z"
         id="path100"
         inkscape:connector-curvature="0" />
    </clipPath>
    <inkscape:perspective
       sodipodi:type="inkscape:persp3d"
       inkscape:vp_x="0 : 389.7996 : 1"
       inkscape:vp_y="0 : 999.99992 : 0"
       inkscape:vp_z="1500 : 389.7996 : 1"
       inkscape:persp3d-origin="749.99998 : 95.754155 : 1"
       id="perspective4362-5" />
    <clipPath
       id="clp12-3">
      <path
         d="m 45.315,71.927 h 12.92 v 15.867 h -12.92 z"
         id="path184-5"
         inkscape:connector-curvature="0" />
    </clipPath>
    <clipPath
       id="clp21-6">
      <path
         d="m 123.91,72.178 h 26.23 v 15.294 h -26.23 z"
         id="path592-2"
         inkscape:connector-curvature="0" />
    </clipPath>
    <clipPath
       id="clp9-9">
      <path
         d="m 413.96,49.857 h 31.76 v 8.719 h -31.76 z"
         id="path100-1"
         inkscape:connector-curvature="0" />
    </clipPath>
    <inkscape:perspective
       sodipodi:type="inkscape:persp3d"
       inkscape:vp_x="0 : 635.96801 : 1"
       inkscape:vp_y="0 : 999.99996 : 0"
       inkscape:vp_z="1500 : 635.96801 : 1"
       inkscape:persp3d-origin="750 : 341.92255 : 1"
       id="perspective4362-9" />
    <clipPath
       id="clp12-37">
      <path
         d="m 45.315,71.927 h 12.92 v 15.867 h -12.92 z"
         id="path184-4"
         inkscape:connector-curvature="0" />
    </clipPath>
    <clipPath
       id="clp21-5">
      <path
         d="m 123.91,72.178 h 26.23 v 15.294 h -26.23 z"
         id="path592-25"
         inkscape:connector-curvature="0" />
    </clipPath>
    <clipPath
       id="clp9-4">
      <path
         d="m 413.96,49.857 h 31.76 v 8.719 h -31.76 z"
         id="path100-7"
         inkscape:connector-curvature="0" />
    </clipPath>
    <inkscape:perspective
       sodipodi:type="inkscape:persp3d"
       inkscape:vp_x="0 : 635.96801 : 1"
       inkscape:vp_y="0 : 999.99996 : 0"
       inkscape:vp_z="1500 : 635.96801 : 1"
       inkscape:persp3d-origin="750 : 341.92255 : 1"
       id="perspective4362-6" />
    <clipPath
       id="clp12-8">
      <path
         d="m 45.315,71.927 h 12.92 v 15.867 h -12.92 z"
         id="path184-9"
         inkscape:connector-curvature="0" />
    </clipPath>
    <clipPath
       id="clp21-2">
      <path
         d="m 123.91,72.178 h 26.23 v 15.294 h -26.23 z"
         id="path592-6"
         inkscape:connector-curvature="0" />
    </clipPath>
    <clipPath
       id="clp9-6">
      <path
         d="m 413.96,49.857 h 31.76 v 8.719 h -31.76 z"
         id="path100-4"
         inkscape:connector-curvature="0" />
    </clipPath>
    <inkscape:perspective
       sodipodi:type="inkscape:persp3d"
       inkscape:vp_x="0 : 635.96801 : 1"
       inkscape:vp_y="0 : 999.99996 : 0"
       inkscape:vp_z="1500 : 635.96801 : 1"
       inkscape:persp3d-origin="750 : 341.92255 : 1"
       id="perspective4362-53" />
    <clipPath
       id="clp12-5">
      <path
         d="m 45.315,71.927 h 12.92 v 15.867 h -12.92 z"
         id="path184-6"
         inkscape:connector-curvature="0" />
    </clipPath>
    <clipPath
       id="clp21-29">
      <path
         d="m 123.91,72.178 h 26.23 v 15.294 h -26.23 z"
         id="path592-1"
         inkscape:connector-curvature="0" />
    </clipPath>
    <clipPath
       id="clp9-2">
      <path
         d="m 413.96,49.857 h 31.76 v 8.719 h -31.76 z"
         id="path100-70"
         inkscape:connector-curvature="0" />
    </clipPath>
    <inkscape:perspective
       sodipodi:type="inkscape:persp3d"
       inkscape:vp_x="0 : 635.96801 : 1"
       inkscape:vp_y="0 : 999.99996 : 0"
       inkscape:vp_z="1500 : 635.96801 : 1"
       inkscape:persp3d-origin="750 : 341.92255 : 1"
       id="perspective4362-5356" />
    <clipPath
       id="clp12-2">
      <path
         d="m 45.315,71.927 h 12.92 v 15.867 h -12.92 z"
         id="path184-91"
         inkscape:connector-curvature="0" />
    </clipPath>
    <clipPath
       id="clp21-27">
      <path
         d="m 123.91,72.178 h 26.23 v 15.294 h -26.23 z"
         id="path592-0"
         inkscape:connector-curvature="0" />
    </clipPath>
    <clipPath
       id="clp9-93">
      <path
         d="m 413.96,49.857 h 31.76 v 8.719 h -31.76 z"
         id="path100-6"
         inkscape:connector-curvature="0" />
    </clipPath>
    <inkscape:perspective
       sodipodi:type="inkscape:persp3d"
       inkscape:vp_x="0 : 389.7996 : 1"
       inkscape:vp_y="0 : 999.99992 : 0"
       inkscape:vp_z="1500 : 389.7996 : 1"
       inkscape:persp3d-origin="749.99998 : 95.754155 : 1"
       id="perspective4362-535" />
    <clipPath
       id="clp12-6">
      <path
         d="m 45.315,71.927 h 12.92 v 15.867 h -12.92 z"
         id="path184-2"
         inkscape:connector-curvature="0" />
    </clipPath>
    <clipPath
       id="clp21-9">
      <path
         d="m 123.91,72.178 h 26.23 v 15.294 h -26.23 z"
         id="path592-12"
         inkscape:connector-curvature="0" />
    </clipPath>
    <clipPath
       id="clp9-7">
      <path
         d="m 413.96,49.857 h 31.76 v 8.719 h -31.76 z"
         id="path100-0"
         inkscape:connector-curvature="0" />
    </clipPath>
    <inkscape:perspective
       sodipodi:type="inkscape:persp3d"
       inkscape:vp_x="0 : 389.7996 : 1"
       inkscape:vp_y="0 : 999.99992 : 0"
       inkscape:vp_z="1500 : 389.7996 : 1"
       inkscape:persp3d-origin="749.99998 : 95.754155 : 1"
       id="perspective4362-5-0" />
    <clipPath
       id="clp12-3-6">
      <path
         d="m 45.315,71.927 h 12.92 v 15.867 h -12.92 z"
         id="path184-5-2"
         inkscape:connector-curvature="0" />
    </clipPath>
    <clipPath
       id="clp21-6-6">
      <path
         d="m 123.91,72.178 h 26.23 v 15.294 h -26.23 z"
         id="path592-2-1"
         inkscape:connector-curvature="0" />
    </clipPath>
    <clipPath
       id="clp9-9-8">
      <path
         d="m 413.96,49.857 h 31.76 v 8.719 h -31.76 z"
         id="path100-1-7"
         inkscape:connector-curvature="0" />
    </clipPath>
    <inkscape:perspective
       sodipodi:type="inkscape:persp3d"
       inkscape:vp_x="0 : 635.96801 : 1"
       inkscape:vp_y="0 : 999.99996 : 0"
       inkscape:vp_z="1500 : 635.96801 : 1"
       inkscape:persp3d-origin="750 : 341.92255 : 1"
       id="perspective4362-9-9" />
    <clipPath
       id="clp12-37-2">
      <path
         d="m 45.315,71.927 h 12.92 v 15.867 h -12.92 z"
         id="path184-4-0"
         inkscape:connector-curvature="0" />
    </clipPath>
    <clipPath
       id="clp21-5-2">
      <path
         d="m 123.91,72.178 h 26.23 v 15.294 h -26.23 z"
         id="path592-25-3"
         inkscape:connector-curvature="0" />
    </clipPath>
    <clipPath
       id="clp9-4-7">
      <path
         d="m 413.96,49.857 h 31.76 v 8.719 h -31.76 z"
         id="path100-7-5"
         inkscape:connector-curvature="0" />
    </clipPath>
    <inkscape:perspective
       sodipodi:type="inkscape:persp3d"
       inkscape:vp_x="0 : 635.96801 : 1"
       inkscape:vp_y="0 : 999.99996 : 0"
       inkscape:vp_z="1500 : 635.96801 : 1"
       inkscape:persp3d-origin="750 : 341.92255 : 1"
       id="perspective4362-6-9" />
    <clipPath
       id="clp12-8-2">
      <path
         d="m 45.315,71.927 h 12.92 v 15.867 h -12.92 z"
         id="path184-9-2"
         inkscape:connector-curvature="0" />
    </clipPath>
    <clipPath
       id="clp21-2-8">
      <path
         d="m 123.91,72.178 h 26.23 v 15.294 h -26.23 z"
         id="path592-6-9"
         inkscape:connector-curvature="0" />
    </clipPath>
    <clipPath
       id="clp9-6-7">
      <path
         d="m 413.96,49.857 h 31.76 v 8.719 h -31.76 z"
         id="path100-4-3"
         inkscape:connector-curvature="0" />
    </clipPath>
    <inkscape:perspective
       sodipodi:type="inkscape:persp3d"
       inkscape:vp_x="0 : 635.96801 : 1"
       inkscape:vp_y="0 : 999.99996 : 0"
       inkscape:vp_z="1500 : 635.96801 : 1"
       inkscape:persp3d-origin="750 : 341.92255 : 1"
       id="perspective4362-53-6" />
    <clipPath
       id="clp12-5-1">
      <path
         d="m 45.315,71.927 h 12.92 v 15.867 h -12.92 z"
         id="path184-6-2"
         inkscape:connector-curvature="0" />
    </clipPath>
    <clipPath
       id="clp21-29-9">
      <path
         d="m 123.91,72.178 h 26.23 v 15.294 h -26.23 z"
         id="path592-1-3"
         inkscape:connector-curvature="0" />
    </clipPath>
    <clipPath
       id="clp9-2-1">
      <path
         d="m 413.96,49.857 h 31.76 v 8.719 h -31.76 z"
         id="path100-70-9"
         inkscape:connector-curvature="0" />
    </clipPath>
    <inkscape:perspective
       sodipodi:type="inkscape:persp3d"
       inkscape:vp_x="0 : 70.333504 : 1"
       inkscape:vp_y="0 : 1000 : 0"
       inkscape:vp_z="301.66699 : 70.333504 : 1"
       inkscape:persp3d-origin="150.8335 : 46.889002 : 1"
       id="perspective326" />
  </defs>
  <g
     inkscape:label="Layer 1"
     inkscape:groupmode="layer"
     id="layer1"
     transform="translate(-186.65577,-98.20731)">
    <text
       xml:space="preserve"
       style="font-size:4.23333px;font-family:sans-serif;-inkscape-font-specification:sans-serif;fill:#fdf0e3;fill-opacity:1;stroke:#4a280d;stroke-width:15;stroke-linecap:round;stroke-linejoin:round;stroke-miterlimit:4;stroke-dasharray:none"
       x="214.69817"
       y="116.24603"
       id="text265343"><tspan
         sodipodi:role="line"
         id="tspan265341"
         style="stroke-width:15;stroke-miterlimit:4;stroke-dasharray:none"
         x="214.69817"
         y="116.24603" /></text>
    <text
       xml:space="preserve"
       style="font-size:4.23333px;font-family:sans-serif;-inkscape-font-specification:sans-serif;fill:#fdf0e3;fill-opacity:1;stroke:#4a280d;stroke-width:15;stroke-linecap:round;stroke-linejoin:round;stroke-miterlimit:4;stroke-dasharray:none"
       x="214.23691"
       y="114.62688"
       id="text268683"><tspan
         sodipodi:role="line"
         id="tspan268681"
         style="stroke-width:15"
         x="214.23691"
         y="114.62688" /></text>
    <text
       xml:space="preserve"
       style="font-size:4.23333px;font-family:sans-serif;-inkscape-font-specification:sans-serif;fill:#fdf0e3;fill-opacity:1;stroke:#4a280d;stroke-width:5;stroke-linecap:round;stroke-linejoin:round;stroke-miterlimit:4;stroke-dasharray:none"
       x="242.03822"
       y="123.46563"
       id="text270271"><tspan
         sodipodi:role="line"
         id="tspan270269"
         style="stroke-width:5;stroke-miterlimit:4;stroke-dasharray:none"
         x="242.03822"
         y="123.46563" /></text>
    <text
       xml:space="preserve"
       style="font-size:4.23333px;font-family:sans-serif;-inkscape-font-specification:sans-serif;fill:#fdf0e3;fill-opacity:1;stroke:#4a280d;stroke-width:4.99999;stroke-linecap:round;stroke-linejoin:round;stroke-miterlimit:4;stroke-dasharray:none"
       x="244.82349"
       y="125.95525"
       id="text275393"><tspan
         sodipodi:role="line"
         id="tspan275391"
         style="stroke-width:5"
         x="244.82349"
         y="125.95525" /></text>
    <g
       id="g193503"
       transform="translate(0,0.18106276)">
      <g
         id="g193548">
        <path
           sodipodi:type="star"
           style="opacity:1;fill:#ffffff;fill-opacity:1;stroke:#000000;stroke-width:73.9932;stroke-miterlimit:4;stroke-dasharray:none;stroke-opacity:1"
           id="path4560"
           sodipodi:sides="6"
           sodipodi:cx="-5551.2134"
           sodipodi:cy="-204.52565"
           sodipodi:r1="1701.6108"
           sodipodi:r2="1473.6381"
           sodipodi:arg1="1.0471976"
           sodipodi:arg2="1.5707963"
           inkscape:flatsided="true"
           inkscape:rounded="0"
           inkscape:randomized="0"
           inkscape:transform-center-x="1.5731476e-05"
           inkscape:transform-center-y="7.9344316e-05"
           transform="matrix(0,0.01457052,-0.01454011,0,205.64674,204.32612)"
           d="m -4700.408,1269.1126 -1701.6109,-10e-5 -850.8053,-1473.63823 850.8055,-1473.63817 1701.6108,10e-5 850.8054,1473.63823 z" />
        <text
           xml:space="preserve"
           style="font-size:4.23333px;font-family:sans-serif;-inkscape-font-specification:sans-serif;fill:#fdf0e3;fill-opacity:1;stroke:#4a280d;stroke-width:15;stroke-linecap:round;stroke-linejoin:round;stroke-miterlimit:4;stroke-dasharray:none"
           x="264.96298"
           y="116.49283"
           id="text265343-7"><tspan
             sodipodi:role="line"
             id="tspan265341-8"
             style="stroke-width:15;stroke-miterlimit:4;stroke-dasharray:none"
             x="264.96298"
             y="116.49283" /></text>
        <text
           xml:space="preserve"
           style="font-size:4.23333px;font-family:sans-serif;-inkscape-font-specification:sans-serif;fill:#fdf0e3;fill-opacity:1;stroke:#4a280d;stroke-width:15;stroke-linecap:round;stroke-linejoin:round;stroke-miterlimit:4;stroke-dasharray:none"
           x="264.50171"
           y="114.87369"
           id="text268683-6"><tspan
             sodipodi:role="line"
             id="tspan268681-8"
             style="stroke-width:15"
             x="264.50171"
             y="114.87369" /></text>
        <text
           xml:space="preserve"
           style="font-size:4.23333px;font-family:sans-serif;-inkscape-font-specification:sans-serif;fill:#fdf0e3;fill-opacity:1;stroke:#4a280d;stroke-width:5;stroke-linecap:round;stroke-linejoin:round;stroke-miterlimit:4;stroke-dasharray:none"
           x="292.30304"
           y="123.71243"
           id="text270271-8"><tspan
             sodipodi:role="line"
             id="tspan270269-4"
             style="stroke-width:5;stroke-miterlimit:4;stroke-dasharray:none"
             x="292.30304"
             y="123.71243" /></text>
        <text
           xml:space="preserve"
           style="font-size:4.23333px;font-family:sans-serif;-inkscape-font-specification:sans-serif;fill:#fdf0e3;fill-opacity:1;stroke:#4a280d;stroke-width:4.99999;stroke-linecap:round;stroke-linejoin:round;stroke-miterlimit:4;stroke-dasharray:none"
           x="295.08829"
           y="126.20206"
           id="text275393-3"><tspan
             sodipodi:role="line"
             id="tspan275391-1"
             style="stroke-width:5"
             x="295.08829"
             y="126.20206" /></text>
      </g>
    </g>
  </g>
  <style
     type="text/css"
     id="style10296">
	.st0{fill:#75AADB;}
	.st1{fill:#4D4D4D;}
	.st2{fill:#FFFFFF;}
	.st3{fill:url(#SVGID_1_);}
	.st4{fill:url(#SVGID_2_);}
	.st5{fill:url(#SVGID_3_);}
	.st6{fill:url(#SVGID_4_);}
	.st7{fill:url(#SVGID_5_);}
	.st8{fill:url(#SVGID_6_);}
	.st9{fill:url(#SVGID_7_);}
	.st10{fill:url(#SVGID_8_);}
	.st11{fill:url(#SVGID_9_);}
	.st12{fill:url(#SVGID_10_);}
	.st13{opacity:0.18;fill:url(#SVGID_11_);}
	.st14{opacity:0.3;}
</style>
  <style
     type="text/css"
     id="style10296-7">
	.st0{fill:#75AADB;}
	.st1{fill:#4D4D4D;}
	.st2{fill:#FFFFFF;}
	.st3{fill:url(#SVGID_1_);}
	.st4{fill:url(#SVGID_2_);}
	.st5{fill:url(#SVGID_3_);}
	.st6{fill:url(#SVGID_4_);}
	.st7{fill:url(#SVGID_5_);}
	.st8{fill:url(#SVGID_6_);}
	.st9{fill:url(#SVGID_7_);}
	.st10{fill:url(#SVGID_8_);}
	.st11{fill:url(#SVGID_9_);}
	.st12{fill:url(#SVGID_10_);}
	.st13{opacity:0.18;fill:url(#SVGID_11_);}
	.st14{opacity:0.3;}
</style>
  <style
     type="text/css"
     id="style10296-4">
	.st0{fill:#75AADB;}
	.st1{fill:#4D4D4D;}
	.st2{fill:#FFFFFF;}
	.st3{fill:url(#SVGID_1_);}
	.st4{fill:url(#SVGID_2_);}
	.st5{fill:url(#SVGID_3_);}
	.st6{fill:url(#SVGID_4_);}
	.st7{fill:url(#SVGID_5_);}
	.st8{fill:url(#SVGID_6_);}
	.st9{fill:url(#SVGID_7_);}
	.st10{fill:url(#SVGID_8_);}
	.st11{fill:url(#SVGID_9_);}
	.st12{fill:url(#SVGID_10_);}
	.st13{opacity:0.18;fill:url(#SVGID_11_);}
	.st14{opacity:0.3;}
</style>
  <style
     type="text/css"
     id="style10296-9">
	.st0{fill:#75AADB;}
	.st1{fill:#4D4D4D;}
	.st2{fill:#FFFFFF;}
	.st3{fill:url(#SVGID_1_);}
	.st4{fill:url(#SVGID_2_);}
	.st5{fill:url(#SVGID_3_);}
	.st6{fill:url(#SVGID_4_);}
	.st7{fill:url(#SVGID_5_);}
	.st8{fill:url(#SVGID_6_);}
	.st9{fill:url(#SVGID_7_);}
	.st10{fill:url(#SVGID_8_);}
	.st11{fill:url(#SVGID_9_);}
	.st12{fill:url(#SVGID_10_);}
	.st13{opacity:0.18;fill:url(#SVGID_11_);}
	.st14{opacity:0.3;}
</style>
  <style
     type="text/css"
     id="style10296-2">
	.st0{fill:#75AADB;}
	.st1{fill:#4D4D4D;}
	.st2{fill:#FFFFFF;}
	.st3{fill:url(#SVGID_1_);}
	.st4{fill:url(#SVGID_2_);}
	.st5{fill:url(#SVGID_3_);}
	.st6{fill:url(#SVGID_4_);}
	.st7{fill:url(#SVGID_5_);}
	.st8{fill:url(#SVGID_6_);}
	.st9{fill:url(#SVGID_7_);}
	.st10{fill:url(#SVGID_8_);}
	.st11{fill:url(#SVGID_9_);}
	.st12{fill:url(#SVGID_10_);}
	.st13{opacity:0.18;fill:url(#SVGID_11_);}
	.st14{opacity:0.3;}
</style>
  <style
     type="text/css"
     id="style10296-6">
	.st0{fill:#75AADB;}
	.st1{fill:#4D4D4D;}
	.st2{fill:#FFFFFF;}
	.st3{fill:url(#SVGID_1_);}
	.st4{fill:url(#SVGID_2_);}
	.st5{fill:url(#SVGID_3_);}
	.st6{fill:url(#SVGID_4_);}
	.st7{fill:url(#SVGID_5_);}
	.st8{fill:url(#SVGID_6_);}
	.st9{fill:url(#SVGID_7_);}
	.st10{fill:url(#SVGID_8_);}
	.st11{fill:url(#SVGID_9_);}
	.st12{fill:url(#SVGID_10_);}
	.st13{opacity:0.18;fill:url(#SVGID_11_);}
	.st14{opacity:0.3;}
</style>
  <style
     type="text/css"
     id="style10296-3">
	.st0{fill:#75AADB;}
	.st1{fill:#4D4D4D;}
	.st2{fill:#FFFFFF;}
	.st3{fill:url(#SVGID_1_);}
	.st4{fill:url(#SVGID_2_);}
	.st5{fill:url(#SVGID_3_);}
	.st6{fill:url(#SVGID_4_);}
	.st7{fill:url(#SVGID_5_);}
	.st8{fill:url(#SVGID_6_);}
	.st9{fill:url(#SVGID_7_);}
	.st10{fill:url(#SVGID_8_);}
	.st11{fill:url(#SVGID_9_);}
	.st12{fill:url(#SVGID_10_);}
	.st13{opacity:0.18;fill:url(#SVGID_11_);}
	.st14{opacity:0.3;}
</style>
  <style
     type="text/css"
     id="style10296-7-1">
	.st0{fill:#75AADB;}
	.st1{fill:#4D4D4D;}
	.st2{fill:#FFFFFF;}
	.st3{fill:url(#SVGID_1_);}
	.st4{fill:url(#SVGID_2_);}
	.st5{fill:url(#SVGID_3_);}
	.st6{fill:url(#SVGID_4_);}
	.st7{fill:url(#SVGID_5_);}
	.st8{fill:url(#SVGID_6_);}
	.st9{fill:url(#SVGID_7_);}
	.st10{fill:url(#SVGID_8_);}
	.st11{fill:url(#SVGID_9_);}
	.st12{fill:url(#SVGID_10_);}
	.st13{opacity:0.18;fill:url(#SVGID_11_);}
	.st14{opacity:0.3;}
</style>
  <style
     type="text/css"
     id="style10296-4-5">
	.st0{fill:#75AADB;}
	.st1{fill:#4D4D4D;}
	.st2{fill:#FFFFFF;}
	.st3{fill:url(#SVGID_1_);}
	.st4{fill:url(#SVGID_2_);}
	.st5{fill:url(#SVGID_3_);}
	.st6{fill:url(#SVGID_4_);}
	.st7{fill:url(#SVGID_5_);}
	.st8{fill:url(#SVGID_6_);}
	.st9{fill:url(#SVGID_7_);}
	.st10{fill:url(#SVGID_8_);}
	.st11{fill:url(#SVGID_9_);}
	.st12{fill:url(#SVGID_10_);}
	.st13{opacity:0.18;fill:url(#SVGID_11_);}
	.st14{opacity:0.3;}
</style>
  <style
     type="text/css"
     id="style10296-9-5">
	.st0{fill:#75AADB;}
	.st1{fill:#4D4D4D;}
	.st2{fill:#FFFFFF;}
	.st3{fill:url(#SVGID_1_);}
	.st4{fill:url(#SVGID_2_);}
	.st5{fill:url(#SVGID_3_);}
	.st6{fill:url(#SVGID_4_);}
	.st7{fill:url(#SVGID_5_);}
	.st8{fill:url(#SVGID_6_);}
	.st9{fill:url(#SVGID_7_);}
	.st10{fill:url(#SVGID_8_);}
	.st11{fill:url(#SVGID_9_);}
	.st12{fill:url(#SVGID_10_);}
	.st13{opacity:0.18;fill:url(#SVGID_11_);}
	.st14{opacity:0.3;}
</style>
  <style
     type="text/css"
     id="style10296-2-4">
	.st0{fill:#75AADB;}
	.st1{fill:#4D4D4D;}
	.st2{fill:#FFFFFF;}
	.st3{fill:url(#SVGID_1_);}
	.st4{fill:url(#SVGID_2_);}
	.st5{fill:url(#SVGID_3_);}
	.st6{fill:url(#SVGID_4_);}
	.st7{fill:url(#SVGID_5_);}
	.st8{fill:url(#SVGID_6_);}
	.st9{fill:url(#SVGID_7_);}
	.st10{fill:url(#SVGID_8_);}
	.st11{fill:url(#SVGID_9_);}
	.st12{fill:url(#SVGID_10_);}
	.st13{opacity:0.18;fill:url(#SVGID_11_);}
	.st14{opacity:0.3;}
</style>
  <path
     style="fill:#000000;fill-opacity:1;stroke:none;stroke-width:0.162888"
     d="m 17.958796,25.415806 c 0,-0.797257 0.09735,-1.530251 0.292688,-2.198981 0.194701,-0.668095 0.414853,-1.1733 0.659185,-1.514346 0.130439,-0.179431 0.329593,-0.419945 0.598103,-0.720268 0.269782,-0.301597 0.624191,-0.672547 1.063861,-1.112217 0.520476,-0.520477 0.89079,-0.948056 1.10967,-1.28274 0.220154,-0.334045 0.330867,-0.672548 0.330867,-1.015502 0,-0.162887 -0.01655,-0.308596 -0.04836,-0.437759 h -0.09672 c -0.01719,0.129163 -0.136163,0.315594 -0.356315,0.559925 -0.218881,0.244331 -0.491208,0.416127 -0.816984,0.514113 -0.162887,0.04963 -0.379223,0.09417 -0.649004,0.134892 -0.268511,0.04073 -0.589832,0.07763 -0.964601,0.109442 -0.195338,0.131074 -0.403401,0.310504 -0.623554,0.539566 -0.218879,0.227788 -0.450486,0.503934 -0.694816,0.829709 -0.488664,0.635006 -0.92897,0.951873 -1.320916,0.951873 -0.422491,0 -0.768627,-0.04836 -1.03841,-0.145072 -0.268509,-0.09798 -0.483572,-0.278053 -0.64646,-0.539565 l -1.099492,-1.733224 c 0.113258,-0.211882 0.231607,-0.481028 0.353773,-0.806803 0.122161,-0.325775 0.257055,-0.692273 0.404673,-1.099491 0.145709,-0.423763 0.29587,-0.786442 0.450487,-1.086766 0.15398,-0.301596 0.296506,-0.534475 0.42758,-0.697362 0.276144,-0.357589 0.51284,-0.886975 0.710087,-1.588154 0.128528,-0.471483 0.254512,-0.858341 0.376678,-1.160573 0.12216,-0.301598 0.296506,-0.56629 0.524294,-0.794078 0.229061,-0.227152 0.571377,-0.463212 1.028227,-0.707543 0.145709,-0.4733921 0.218881,-0.9703255 0.218881,-1.4914392 0,-0.2608729 -0.01653,-0.5172944 -0.04836,-0.7686259 -0.03245,-0.2526022 -0.08081,-0.5096608 -0.145071,-0.7711709 h 0.585377 c 0.86343,0.3257751 1.384543,0.8958815 1.562701,1.7103192 h 0.147617 c 0.06426,-0.1457075 0.112628,-0.3894016 0.145072,-0.7304477 0.03372,-0.342318 0.0509,-0.6286455 0.0509,-0.8577058 0,-0.1457075 -0.0044,-0.291415 -0.01273,-0.4377609 -0.0089,-0.1476166 -0.02036,-0.278053 -0.03564,-0.3919479 h 0.855161 c 0.488662,0.2596024 0.878701,0.6585492 1.170754,1.1962057 0.293324,0.5382925 0.440306,1.1166697 0.440306,1.7357714 1.009139,0.2767811 1.966104,0.79026 2.870893,1.539797 0.904154,0.748263 1.693774,1.701411 2.369506,2.858168 0.677001,1.155482 1.169479,2.483398 1.478712,3.983109 0.229062,1.123669 0.40022,2.284243 0.514115,3.481721 0.113258,1.196207 0.170523,2.438223 0.170523,3.726054 v 0.21888 z m 9.04026,-1.63651 h 1.61106 c 0,-1.27065 -0.07,-2.508214 -0.2087,-3.713329 -0.137437,-1.206385 -0.353135,-2.314147 -0.646461,-3.323923 -0.29396,-1.00914 -0.684637,-1.856028 -1.173299,-2.540028 -0.358225,-0.522386 -0.724722,-0.978599 -1.099491,-1.369273 -0.373496,-0.390041 -0.7559,-0.707544 -1.147849,-0.951875 l -0.218879,0.145072 c 0.683364,0.570106 1.249652,1.201295 1.697593,1.893567 0.447942,0.692274 0.78517,1.560158 1.012957,2.603656 0.229061,1.042226 0.343592,2.393685 0.343592,4.054374 0,0.602556 -0.01272,1.172663 -0.03818,1.710319 -0.02418,0.538293 -0.06809,1.035227 -0.132348,1.49144 z m -8.503242,-10.43244 c 0.211881,0 0.415491,-0.08145 0.610831,-0.244331 0.1947,-0.162888 0.398309,-0.244332 0.610827,-0.244332 l 0.195973,0.02291 v -0.21888 l -0.684636,-0.195975 c -0.09863,-0.03181 -0.201064,-0.05599 -0.30796,-0.07126 -0.105627,-0.01653 -0.206155,-0.02545 -0.30287,-0.02545 -0.26151,0 -0.477845,0.04963 -0.649005,0.147618 -0.169886,0.09672 -0.254511,0.23415 -0.254511,0.412308 v 0.173068 l 0.02291,0.09672 c 0.130436,0.09861 0.383041,0.147616 0.758445,0.147616 z m -2.443313,5.253125 c 0.049,-0.229061 0.162887,-0.493753 0.341046,-0.794078 0.179431,-0.301597 0.432669,-0.566289 0.758446,-0.794076 l -0.09927,-0.122161 c -0.45494,0.01528 -0.824618,0.133618 -1.109671,0.353771 -0.285053,0.218879 -0.468302,0.491209 -0.549746,0.816983 0.06426,0.131074 0.165433,0.249422 0.30287,0.356317 0.138708,0.105627 0.257692,0.166706 0.356315,0.183249 z m 0,0"
     id="path2" />
  <path
     style="font-weight:bold;font-size:7.05556px;line-height:0.9;font-family:'Liberation Serif';-inkscape-font-specification:'Liberation Serif Bold';text-align:center;text-anchor:middle;fill:#000000;stroke-width:0.443739"
     d="m 4.613776,31.675591 1.1220837,-1.22298 -0.3057449,-0.07032 V 30.1805 h 1.0945666 v 0.201791 l -0.3302045,0.06726 -0.6848684,0.721558 0.9875559,1.608218 0.2568257,0.07338 v 0.201792 H 5.3720233 v -0.201792 l 0.1681597,-0.07338 -0.5748004,-1.0059 -0.3516066,0.244595 v 0.761305 l 0.2843428,0.07338 v 0.201792 H 3.4580605 v -0.201792 l 0.2721129,-0.07338 v -3.794289 l -0.293515,-0.07338 v -0.20179 H 4.613776 Z m 3.6597657,-1.565414 q 0.583973,0 0.843856,0.311859 0.262941,0.31186 0.262941,0.969211 v 0.250711 h -1.507322 v 0.04892 q 0,0.45556 0.07338,0.648179 0.07338,0.192619 0.238481,0.293515 0.165102,0.100896 0.452503,0.100896 0.269055,0 0.678753,-0.08867 v 0.235423 q -0.16816,0.100895 -0.437215,0.168159 -0.265998,0.06421 -0.519766,0.06421 -0.706271,0 -1.0456477,-0.366893 -0.3363194,-0.369952 -0.3363194,-1.143486 0,-0.752133 0.3210321,-1.122084 0.32409,-0.369951 0.975326,-0.369951 z m -0.03363,0.308802 q -0.183447,0 -0.275171,0.198734 -0.08867,0.198734 -0.08867,0.703213 h 0.666524 q 0,-0.409698 -0.02752,-0.5748 -0.02752,-0.16816 -0.09478,-0.247653 -0.06421,-0.07949 -0.18039,-0.07949 z m 2.6294053,0.01223 0.207907,-0.107011 q 0.428043,-0.220136 0.770477,-0.220136 0.794936,0 0.794936,0.846913 v 1.828355 l 0.2874,0.07338 v 0.201792 H 11.502209 V 32.85271 l 0.256826,-0.07338 v -1.709114 q 0,-0.256826 -0.110068,-0.400526 -0.107011,-0.1437 -0.308802,-0.1437 -0.232367,0 -0.464733,0.103953 v 2.149387 l 0.262941,0.07338 v 0.201792 H 9.7105437 V 32.85271 l 0.281285,-0.07338 v -2.323661 l -0.281285,-0.07338 v -0.201791 h 1.1159693 z m 4.396611,2.461246 q -0.171217,0.110068 -0.26294,0.146757 -0.09172,0.03364 -0.207907,0.05503 -0.116183,0.02141 -0.256825,0.02141 -0.635949,0 -0.947809,-0.363837 -0.31186,-0.366894 -0.31186,-1.125141 0,-0.746017 0.333261,-1.134313 0.33632,-0.388297 0.972269,-0.388297 0.333262,0 0.672639,0.08255 -0.01834,-0.100896 -0.01834,-0.473905 v -0.727675 l -0.293515,-0.07338 v -0.201791 h 1.177118 v 4.069464 l 0.314917,0.07338 v 0.201792 h -1.106797 z m -1.091509,-1.290243 q 0,0.571742 0.1437,0.87443 0.143701,0.29963 0.412756,0.29963 0.244596,0 0.507536,-0.13147 v -2.164675 q -0.23848,-0.06421 -0.483076,-0.06421 -0.275171,0 -0.428044,0.302687 -0.152872,0.299631 -0.152872,0.883603 z m 4.0022,-1.48592 q 1.07928,0 1.07928,0.794936 v 1.868102 l 0.2874,0.07338 v 0.201792 h -1.057877 l -0.06726,-0.220136 q -0.238482,0.162045 -0.431101,0.220136 -0.192619,0.06115 -0.388295,0.06115 -0.889719,0 -0.889719,-0.856087 0,-0.324089 0.131471,-0.516708 0.131471,-0.195677 0.379124,-0.2874 0.247653,-0.09478 0.779649,-0.107011 l 0.373009,-0.0092 v -0.418871 q 0,-0.519765 -0.424985,-0.519765 -0.256826,0 -0.5748,0.158987 l -0.116184,0.357721 H 17.05454 v -0.694041 q 0.461674,-0.07032 0.678753,-0.08867 0.217079,-0.01834 0.44333,-0.01834 z m 0.195678,1.495092 -0.256827,0.0092 q -0.296572,0.01223 -0.412755,0.15593 -0.113125,0.1437 -0.113125,0.464732 0,0.259883 0.09172,0.382181 0.09172,0.122298 0.238481,0.122298 0.207907,0 0.452503,-0.107011 z m 2.583543,1.167946 0.314917,0.07338 v 0.201792 H 19.760378 V 32.85271 l 0.311859,-0.07338 v -3.794293 l -0.293515,-0.07338 v -0.201791 h 1.177118 z m 1.739688,0 0.314917,0.07338 v 0.201792 H 21.500066 V 32.85271 l 0.311859,-0.07338 v -3.794293 l -0.293515,-0.07338 v -0.201791 h 1.177118 z m 1.754977,-1.103739 1.122084,-1.22298 -0.305745,-0.07032 V 30.1805 h 1.094566 v 0.201791 l -0.330205,0.06726 -0.684867,0.721558 0.987555,1.608218 0.256826,0.07338 v 0.201792 h -1.381967 v -0.201792 l 0.16816,-0.07338 -0.574801,-1.0059 -0.351606,0.244595 v 0.761305 l 0.284343,0.07338 v 0.201792 h -1.440059 v -0.201792 l 0.272113,-0.07338 v -3.794288 l -0.293515,-0.07338 v -0.201791 h 1.177118 z m 3.476318,-1.244382 0.207907,-0.107011 q 0.428042,-0.220136 0.770476,-0.220136 0.794938,0 0.794938,0.846913 v 1.828355 l 0.2874,0.07338 v 0.201792 H 28.559715 V 32.85271 l 0.256826,-0.07338 v -1.709114 q 0,-0.256826 -0.110068,-0.400526 -0.107011,-0.1437 -0.308803,-0.1437 -0.232366,0 -0.464732,0.103953 v 2.149387 l 0.262941,0.07338 v 0.201792 H 26.76805 V 32.85271 l 0.281285,-0.07338 v -2.323661 l -0.281285,-0.07338 v -0.201791 h 1.115969 z m 3.488548,2.348121 0.314918,0.07338 v 0.201792 h -1.51038 V 32.85271 l 0.31186,-0.07338 v -2.323661 l -0.293516,-0.07338 v -0.201791 h 1.177118 z m -0.914176,-3.601675 q 0,-0.198734 0.137584,-0.333262 0.140643,-0.134527 0.333263,-0.134527 0.195676,0 0.330204,0.137584 0.137585,0.134528 0.137585,0.330205 0,0.192619 -0.134528,0.333262 -0.134528,0.137585 -0.333261,0.137585 -0.195678,0 -0.333263,-0.134528 -0.137584,-0.137585 -0.137584,-0.336319 z m 2.106583,2.81591 q -0.544226,-0.229308 -0.544226,-0.895831 0,-0.476962 0.333262,-0.733788 0.333262,-0.259883 0.953923,-0.259883 0.131471,0 0.33632,0.02446 0.207907,0.02141 0.302688,0.05198 l 0.687926,-0.339377 0.10701,0.13147 -0.348549,0.495307 q 0.189562,0.232366 0.189562,0.629834 0,0.486135 -0.330204,0.749075 -0.327148,0.259883 -0.956982,0.259883 -0.241539,0 -0.46779,-0.03669 l -0.07338,0.232366 q 0.0061,0.08867 0.113125,0.16816 0.107011,0.07644 0.262941,0.07644 h 0.669581 q 1.048705,0 1.048705,0.807167 0,0.333262 -0.183447,0.571742 -0.18039,0.241539 -0.535054,0.376067 -0.351607,0.134528 -0.877487,0.134528 -0.62372,0 -0.966154,-0.18039 -0.342434,-0.177332 -0.342434,-0.489192 0,-0.137585 0.110067,-0.265997 0.113126,-0.128413 0.434158,-0.314918 -0.18039,-0.07032 -0.308802,-0.244596 -0.125356,-0.174275 -0.125356,-0.366894 z m 1.614332,1.568471 q 0,-0.290457 -0.388295,-0.290457 h -0.969211 q -0.269056,0.195677 -0.269056,0.44333 0,0.195676 0.186504,0.293515 0.189562,0.09784 0.516709,0.09784 0.44333,0 0.681811,-0.1437 0.241538,-0.1437 0.241538,-0.400526 z m -0.889717,-1.76109 q 0.226251,0 0.327147,-0.174275 0.100895,-0.177332 0.100895,-0.528938 0,-0.351607 -0.100895,-0.516709 -0.09784,-0.16816 -0.327147,-0.16816 -0.210964,0 -0.308802,0.16816 -0.09478,0.165102 -0.09478,0.516709 0,0.351606 0.09478,0.528938 0.09478,0.174275 0.308802,0.174275 z m 2.953494,-1.846699 q 0,0.201792 -0.01834,0.476962 l 0.210964,-0.107011 q 0.434158,-0.220136 0.77965,-0.220136 0.794936,0 0.794936,0.846913 v 1.828355 l 0.2874,0.07338 v 0.201792 H 36.912669 V 32.85271 l 0.256826,-0.07338 v -1.709114 q 0,-0.256826 -0.110069,-0.400526 -0.10701,-0.1437 -0.308801,-0.1437 -0.232367,0 -0.464733,0.103953 v 2.149387 l 0.26294,0.07338 v 0.201792 H 35.121005 V 32.85271 l 0.281284,-0.07338 v -3.794293 l -0.293515,-0.07338 v -0.201791 h 1.177118 z m 3.488548,3.161402 q -0.412756,0 -0.639007,-0.186504 -0.223193,-0.186505 -0.223193,-0.538112 V 30.498474 H 38.536169 V 30.29974 l 0.44333,-0.119241 0.357721,-0.651236 h 0.458617 v 0.651236 h 0.605375 v 0.317975 h -0.605375 v 1.837527 q 0,0.198733 0.08255,0.299629 0.08255,0.100896 0.217079,0.100896 0.162045,0 0.397468,-0.04892 v 0.259883 q -0.09172,0.06421 -0.314917,0.116183 -0.220136,0.05198 -0.403583,0.05198 z"
     id="text4"
     aria-label="kendallknight" />
</svg>
