<?xml version="1.0" encoding="UTF-8" standalone="no"?>
<!-- Created with Inkscape (http://www.inkscape.org/) -->

<svg
   width="43.929592mm"
   height="50.831615mm"
   viewBox="0 0 43.929592 50.831615"
   version="1.1"
   id="svg5"
   inkscape:version="1.4 (1:1.4+202410161351+e7c3feb100)"
   sodipodi:docname="logo.svg"
   xmlns:inkscape="http://www.inkscape.org/namespaces/inkscape"
   xmlns:sodipodi="http://sodipodi.sourceforge.net/DTD/sodipodi-0.dtd"
   xmlns="http://www.w3.org/2000/svg"
   xmlns:svg="http://www.w3.org/2000/svg">
  <sodipodi:namedview
     id="namedview7"
     pagecolor="#ffffff"
     bordercolor="#000000"
     borderopacity="0.25"
     inkscape:pageshadow="2"
     inkscape:pageopacity="0.0"
     inkscape:pagecheckerboard="0"
     inkscape:document-units="mm"
     showgrid="false"
     showguides="true"
     inkscape:guide-bbox="true"
     inkscape:zoom="2.8284271"
     inkscape:cx="62.048621"
     inkscape:cy="63.639611"
     inkscape:window-width="1920"
     inkscape:window-height="1043"
     inkscape:window-x="0"
     inkscape:window-y="0"
     inkscape:window-maximized="1"
     inkscape:current-layer="g193548"
     fit-margin-top="0"
     fit-margin-left="0"
     fit-margin-right="0"
     fit-margin-bottom="0"
     inkscape:showpageshadow="2"
     inkscape:deskcolor="#d1d1d1">
    <sodipodi:guide
       position="12.717529,39.084416"
       orientation="0,-1"
       id="guide1005"
       inkscape:locked="false" />
    <sodipodi:guide
       position="23.960895,14.026529"
       orientation="0,-1"
       id="guide955"
       inkscape:locked="false" />
    <sodipodi:guide
       position="70.109863,40.852787"
       orientation="0,-1"
       id="guide1298"
       inkscape:locked="false" />
    <sodipodi:guide
       position="90.416647,12.008852"
       orientation="0,-1"
       id="guide1300"
       inkscape:locked="false" />
    <sodipodi:guide
       position="146.81303,-69.84215"
       orientation="1,0"
       id="guide5066"
       inkscape:locked="false" />
    <sodipodi:guide
       position="169.37843,-75.419341"
       orientation="1,0"
       id="guide5068"
       inkscape:locked="false" />
    <sodipodi:guide
       position="142.09859,-66.474969"
       orientation="1,0"
       id="guide5089"
       inkscape:locked="false" />
    <sodipodi:guide
       position="142.09859,-72.269267"
       orientation="0,-1"
       id="guide5186"
       inkscape:locked="false" />
    <sodipodi:guide
       position="151.66097,-76.785546"
       orientation="0,-1"
       id="guide5302"
       inkscape:locked="false" />
    <sodipodi:guide
       position="172.97351,-68.957328"
       orientation="0,-1"
       id="guide5532"
       inkscape:locked="false" />
    <sodipodi:guide
       position="177.93284,-68.233866"
       orientation="1,0"
       id="guide6636"
       inkscape:locked="false" />
    <sodipodi:guide
       position="179.1257,-62.485652"
       orientation="0,-1"
       id="guide6638"
       inkscape:locked="false" />
    <sodipodi:guide
       position="15.218191,13.497206"
       orientation="1,0"
       id="guide317730"
       inkscape:locked="false" />
    <sodipodi:guide
       position="21.964806,50.209163"
       orientation="1,0"
       id="guide47262"
       inkscape:locked="false" />
    <sodipodi:guide
       position="4.4979165,9.3581779"
       orientation="1,0"
       id="guide4557"
       inkscape:locked="false" />
  </sodipodi:namedview>
  <defs
     id="defs2">
    <inkscape:perspective
       sodipodi:type="inkscape:persp3d"
       inkscape:vp_x="0 : 389.7996 : 1"
       inkscape:vp_y="0 : 999.99992 : 0"
       inkscape:vp_z="1500 : 389.7996 : 1"
       inkscape:persp3d-origin="749.99998 : 95.754155 : 1"
       id="perspective4362" />
    <clipPath
       id="clp12">
      <path
         d="m 45.315,71.927 h 12.92 v 15.867 h -12.92 z"
         id="path184"
         inkscape:connector-curvature="0" />
    </clipPath>
    <clipPath
       id="clp21">
      <path
         d="m 123.91,72.178 h 26.23 v 15.294 h -26.23 z"
         id="path592"
         inkscape:connector-curvature="0" />
    </clipPath>
    <clipPath
       id="clp9">
      <path
         d="m 413.96,49.857 h 31.76 v 8.719 h -31.76 z"
         id="path100"
         inkscape:connector-curvature="0" />
    </clipPath>
    <inkscape:perspective
       sodipodi:type="inkscape:persp3d"
       inkscape:vp_x="0 : 389.7996 : 1"
       inkscape:vp_y="0 : 999.99992 : 0"
       inkscape:vp_z="1500 : 389.7996 : 1"
       inkscape:persp3d-origin="749.99998 : 95.754155 : 1"
       id="perspective4362-5" />
    <clipPath
       id="clp12-3">
      <path
         d="m 45.315,71.927 h 12.92 v 15.867 h -12.92 z"
         id="path184-5"
         inkscape:connector-curvature="0" />
    </clipPath>
    <clipPath
       id="clp21-6">
      <path
         d="m 123.91,72.178 h 26.23 v 15.294 h -26.23 z"
         id="path592-2"
         inkscape:connector-curvature="0" />
    </clipPath>
    <clipPath
       id="clp9-9">
      <path
         d="m 413.96,49.857 h 31.76 v 8.719 h -31.76 z"
         id="path100-1"
         inkscape:connector-curvature="0" />
    </clipPath>
    <inkscape:perspective
       sodipodi:type="inkscape:persp3d"
       inkscape:vp_x="0 : 635.96801 : 1"
       inkscape:vp_y="0 : 999.99996 : 0"
       inkscape:vp_z="1500 : 635.96801 : 1"
       inkscape:persp3d-origin="750 : 341.92255 : 1"
       id="perspective4362-9" />
    <clipPath
       id="clp12-37">
      <path
         d="m 45.315,71.927 h 12.92 v 15.867 h -12.92 z"
         id="path184-4"
         inkscape:connector-curvature="0" />
    </clipPath>
    <clipPath
       id="clp21-5">
      <path
         d="m 123.91,72.178 h 26.23 v 15.294 h -26.23 z"
         id="path592-25"
         inkscape:connector-curvature="0" />
    </clipPath>
    <clipPath
       id="clp9-4">
      <path
         d="m 413.96,49.857 h 31.76 v 8.719 h -31.76 z"
         id="path100-7"
         inkscape:connector-curvature="0" />
    </clipPath>
    <inkscape:perspective
       sodipodi:type="inkscape:persp3d"
       inkscape:vp_x="0 : 635.96801 : 1"
       inkscape:vp_y="0 : 999.99996 : 0"
       inkscape:vp_z="1500 : 635.96801 : 1"
       inkscape:persp3d-origin="750 : 341.92255 : 1"
       id="perspective4362-6" />
    <clipPath
       id="clp12-8">
      <path
         d="m 45.315,71.927 h 12.92 v 15.867 h -12.92 z"
         id="path184-9"
         inkscape:connector-curvature="0" />
    </clipPath>
    <clipPath
       id="clp21-2">
      <path
         d="m 123.91,72.178 h 26.23 v 15.294 h -26.23 z"
         id="path592-6"
         inkscape:connector-curvature="0" />
    </clipPath>
    <clipPath
       id="clp9-6">
      <path
         d="m 413.96,49.857 h 31.76 v 8.719 h -31.76 z"
         id="path100-4"
         inkscape:connector-curvature="0" />
    </clipPath>
    <inkscape:perspective
       sodipodi:type="inkscape:persp3d"
       inkscape:vp_x="0 : 635.96801 : 1"
       inkscape:vp_y="0 : 999.99996 : 0"
       inkscape:vp_z="1500 : 635.96801 : 1"
       inkscape:persp3d-origin="750 : 341.92255 : 1"
       id="perspective4362-53" />
    <clipPath
       id="clp12-5">
      <path
         d="m 45.315,71.927 h 12.92 v 15.867 h -12.92 z"
         id="path184-6"
         inkscape:connector-curvature="0" />
    </clipPath>
    <clipPath
       id="clp21-29">
      <path
         d="m 123.91,72.178 h 26.23 v 15.294 h -26.23 z"
         id="path592-1"
         inkscape:connector-curvature="0" />
    </clipPath>
    <clipPath
       id="clp9-2">
      <path
         d="m 413.96,49.857 h 31.76 v 8.719 h -31.76 z"
         id="path100-70"
         inkscape:connector-curvature="0" />
    </clipPath>
    <inkscape:perspective
       sodipodi:type="inkscape:persp3d"
       inkscape:vp_x="0 : 635.96801 : 1"
       inkscape:vp_y="0 : 999.99996 : 0"
       inkscape:vp_z="1500 : 635.96801 : 1"
       inkscape:persp3d-origin="750 : 341.92255 : 1"
       id="perspective4362-5356" />
    <clipPath
       id="clp12-2">
      <path
         d="m 45.315,71.927 h 12.92 v 15.867 h -12.92 z"
         id="path184-91"
         inkscape:connector-curvature="0" />
    </clipPath>
    <clipPath
       id="clp21-27">
      <path
         d="m 123.91,72.178 h 26.23 v 15.294 h -26.23 z"
         id="path592-0"
         inkscape:connector-curvature="0" />
    </clipPath>
    <clipPath
       id="clp9-93">
      <path
         d="m 413.96,49.857 h 31.76 v 8.719 h -31.76 z"
         id="path100-6"
         inkscape:connector-curvature="0" />
    </clipPath>
    <inkscape:perspective
       sodipodi:type="inkscape:persp3d"
       inkscape:vp_x="0 : 389.7996 : 1"
       inkscape:vp_y="0 : 999.99992 : 0"
       inkscape:vp_z="1500 : 389.7996 : 1"
       inkscape:persp3d-origin="749.99998 : 95.754155 : 1"
       id="perspective4362-535" />
    <clipPath
       id="clp12-6">
      <path
         d="m 45.315,71.927 h 12.92 v 15.867 h -12.92 z"
         id="path184-2"
         inkscape:connector-curvature="0" />
    </clipPath>
    <clipPath
       id="clp21-9">
      <path
         d="m 123.91,72.178 h 26.23 v 15.294 h -26.23 z"
         id="path592-12"
         inkscape:connector-curvature="0" />
    </clipPath>
    <clipPath
       id="clp9-7">
      <path
         d="m 413.96,49.857 h 31.76 v 8.719 h -31.76 z"
         id="path100-0"
         inkscape:connector-curvature="0" />
    </clipPath>
    <inkscape:perspective
       sodipodi:type="inkscape:persp3d"
       inkscape:vp_x="0 : 389.7996 : 1"
       inkscape:vp_y="0 : 999.99992 : 0"
       inkscape:vp_z="1500 : 389.7996 : 1"
       inkscape:persp3d-origin="749.99998 : 95.754155 : 1"
       id="perspective4362-5-0" />
    <clipPath
       id="clp12-3-6">
      <path
         d="m 45.315,71.927 h 12.92 v 15.867 h -12.92 z"
         id="path184-5-2"
         inkscape:connector-curvature="0" />
    </clipPath>
    <clipPath
       id="clp21-6-6">
      <path
         d="m 123.91,72.178 h 26.23 v 15.294 h -26.23 z"
         id="path592-2-1"
         inkscape:connector-curvature="0" />
    </clipPath>
    <clipPath
       id="clp9-9-8">
      <path
         d="m 413.96,49.857 h 31.76 v 8.719 h -31.76 z"
         id="path100-1-7"
         inkscape:connector-curvature="0" />
    </clipPath>
    <inkscape:perspective
       sodipodi:type="inkscape:persp3d"
       inkscape:vp_x="0 : 635.96801 : 1"
       inkscape:vp_y="0 : 999.99996 : 0"
       inkscape:vp_z="1500 : 635.96801 : 1"
       inkscape:persp3d-origin="750 : 341.92255 : 1"
       id="perspective4362-9-9" />
    <clipPath
       id="clp12-37-2">
      <path
         d="m 45.315,71.927 h 12.92 v 15.867 h -12.92 z"
         id="path184-4-0"
         inkscape:connector-curvature="0" />
    </clipPath>
    <clipPath
       id="clp21-5-2">
      <path
         d="m 123.91,72.178 h 26.23 v 15.294 h -26.23 z"
         id="path592-25-3"
         inkscape:connector-curvature="0" />
    </clipPath>
    <clipPath
       id="clp9-4-7">
      <path
         d="m 413.96,49.857 h 31.76 v 8.719 h -31.76 z"
         id="path100-7-5"
         inkscape:connector-curvature="0" />
    </clipPath>
    <inkscape:perspective
       sodipodi:type="inkscape:persp3d"
       inkscape:vp_x="0 : 635.96801 : 1"
       inkscape:vp_y="0 : 999.99996 : 0"
       inkscape:vp_z="1500 : 635.96801 : 1"
       inkscape:persp3d-origin="750 : 341.92255 : 1"
       id="perspective4362-6-9" />
    <clipPath
       id="clp12-8-2">
      <path
         d="m 45.315,71.927 h 12.92 v 15.867 h -12.92 z"
         id="path184-9-2"
         inkscape:connector-curvature="0" />
    </clipPath>
    <clipPath
       id="clp21-2-8">
      <path
         d="m 123.91,72.178 h 26.23 v 15.294 h -26.23 z"
         id="path592-6-9"
         inkscape:connector-curvature="0" />
    </clipPath>
    <clipPath
       id="clp9-6-7">
      <path
         d="m 413.96,49.857 h 31.76 v 8.719 h -31.76 z"
         id="path100-4-3"
         inkscape:connector-curvature="0" />
    </clipPath>
    <inkscape:perspective
       sodipodi:type="inkscape:persp3d"
       inkscape:vp_x="0 : 635.96801 : 1"
       inkscape:vp_y="0 : 999.99996 : 0"
       inkscape:vp_z="1500 : 635.96801 : 1"
       inkscape:persp3d-origin="750 : 341.92255 : 1"
       id="perspective4362-53-6" />
    <clipPath
       id="clp12-5-1">
      <path
         d="m 45.315,71.927 h 12.92 v 15.867 h -12.92 z"
         id="path184-6-2"
         inkscape:connector-curvature="0" />
    </clipPath>
    <clipPath
       id="clp21-29-9">
      <path
         d="m 123.91,72.178 h 26.23 v 15.294 h -26.23 z"
         id="path592-1-3"
         inkscape:connector-curvature="0" />
    </clipPath>
    <clipPath
       id="clp9-2-1">
      <path
         d="m 413.96,49.857 h 31.76 v 8.719 h -31.76 z"
         id="path100-70-9"
         inkscape:connector-curvature="0" />
    </clipPath>
    <inkscape:perspective
       sodipodi:type="inkscape:persp3d"
       inkscape:vp_x="0 : 70.333504 : 1"
       inkscape:vp_y="0 : 1000 : 0"
       inkscape:vp_z="301.66699 : 70.333504 : 1"
       inkscape:persp3d-origin="150.8335 : 46.889002 : 1"
       id="perspective326" />
  </defs>
  <g
     inkscape:label="Layer 1"
     inkscape:groupmode="layer"
     id="layer1"
     transform="translate(-186.65577,-98.20731)">
    <text
       xml:space="preserve"
       style="font-size:4.23333px;font-family:sans-serif;-inkscape-font-specification:sans-serif;fill:#fdf0e3;fill-opacity:1;stroke:#4a280d;stroke-width:15;stroke-linecap:round;stroke-linejoin:round;stroke-miterlimit:4;stroke-dasharray:none"
       x="214.69817"
       y="116.24603"
       id="text265343"><tspan
         sodipodi:role="line"
         id="tspan265341"
         style="stroke-width:15;stroke-miterlimit:4;stroke-dasharray:none"
         x="214.69817"
         y="116.24603" /></text>
    <text
       xml:space="preserve"
       style="font-size:4.23333px;font-family:sans-serif;-inkscape-font-specification:sans-serif;fill:#fdf0e3;fill-opacity:1;stroke:#4a280d;stroke-width:15;stroke-linecap:round;stroke-linejoin:round;stroke-miterlimit:4;stroke-dasharray:none"
       x="214.23691"
       y="114.62688"
       id="text268683"><tspan
         sodipodi:role="line"
         id="tspan268681"
         style="stroke-width:15"
         x="214.23691"
         y="114.62688" /></text>
    <text
       xml:space="preserve"
       style="font-size:4.23333px;font-family:sans-serif;-inkscape-font-specification:sans-serif;fill:#fdf0e3;fill-opacity:1;stroke:#4a280d;stroke-width:5;stroke-linecap:round;stroke-linejoin:round;stroke-miterlimit:4;stroke-dasharray:none"
       x="242.03822"
       y="123.46563"
       id="text270271"><tspan
         sodipodi:role="line"
         id="tspan270269"
         style="stroke-width:5;stroke-miterlimit:4;stroke-dasharray:none"
         x="242.03822"
         y="123.46563" /></text>
    <text
       xml:space="preserve"
       style="font-size:4.23333px;font-family:sans-serif;-inkscape-font-specification:sans-serif;fill:#fdf0e3;fill-opacity:1;stroke:#4a280d;stroke-width:4.99999;stroke-linecap:round;stroke-linejoin:round;stroke-miterlimit:4;stroke-dasharray:none"
       x="244.82349"
       y="125.95525"
       id="text275393"><tspan
         sodipodi:role="line"
         id="tspan275391"
         style="stroke-width:5"
         x="244.82349"
         y="125.95525" /></text>
    <g
       id="g193503"
       transform="translate(0,0.18106276)">
      <g
         id="g193548">
        <path
           sodipodi:type="star"
           style="opacity:1;fill:#fbedc4;fill-opacity:1;stroke:#000000;stroke-width:73.9932;stroke-miterlimit:4;stroke-dasharray:none;stroke-opacity:1"
           id="path4560"
           sodipodi:sides="6"
           sodipodi:cx="-5551.2134"
           sodipodi:cy="-204.52565"
           sodipodi:r1="1701.6108"
           sodipodi:r2="1473.6381"
           sodipodi:arg1="1.0471976"
           sodipodi:arg2="1.5707963"
           inkscape:flatsided="true"
           inkscape:rounded="0"
           inkscape:randomized="0"
           inkscape:transform-center-x="1.5731476e-05"
           inkscape:transform-center-y="7.9344316e-05"
           transform="matrix(0,0.01457052,-0.01454011,0,205.64674,204.32612)"
           d="m -4700.408,1269.1126 -1701.6109,-10e-5 -850.8053,-1473.63823 850.8055,-1473.63817 1701.6108,10e-5 850.8054,1473.63823 z" />
        <text
           xml:space="preserve"
           style="font-size:4.23333px;font-family:sans-serif;-inkscape-font-specification:sans-serif;fill:#fdf0e3;fill-opacity:1;stroke:#4a280d;stroke-width:15;stroke-linecap:round;stroke-linejoin:round;stroke-miterlimit:4;stroke-dasharray:none"
           x="264.96298"
           y="116.49283"
           id="text265343-7"><tspan
             sodipodi:role="line"
             id="tspan265341-8"
             style="stroke-width:15;stroke-miterlimit:4;stroke-dasharray:none"
             x="264.96298"
             y="116.49283" /></text>
        <text
           xml:space="preserve"
           style="font-size:4.23333px;font-family:sans-serif;-inkscape-font-specification:sans-serif;fill:#fdf0e3;fill-opacity:1;stroke:#4a280d;stroke-width:15;stroke-linecap:round;stroke-linejoin:round;stroke-miterlimit:4;stroke-dasharray:none"
           x="264.50171"
           y="114.87369"
           id="text268683-6"><tspan
             sodipodi:role="line"
             id="tspan268681-8"
             style="stroke-width:15"
             x="264.50171"
             y="114.87369" /></text>
        <text
           xml:space="preserve"
           style="font-size:4.23333px;font-family:sans-serif;-inkscape-font-specification:sans-serif;fill:#fdf0e3;fill-opacity:1;stroke:#4a280d;stroke-width:5;stroke-linecap:round;stroke-linejoin:round;stroke-miterlimit:4;stroke-dasharray:none"
           x="292.30304"
           y="123.71243"
           id="text270271-8"><tspan
             sodipodi:role="line"
             id="tspan270269-4"
             style="stroke-width:5;stroke-miterlimit:4;stroke-dasharray:none"
             x="292.30304"
             y="123.71243" /></text>
        <text
           xml:space="preserve"
           style="font-size:4.23333px;font-family:sans-serif;-inkscape-font-specification:sans-serif;fill:#fdf0e3;fill-opacity:1;stroke:#4a280d;stroke-width:4.99999;stroke-linecap:round;stroke-linejoin:round;stroke-miterlimit:4;stroke-dasharray:none"
           x="295.08829"
           y="126.20206"
           id="text275393-3"><tspan
             sodipodi:role="line"
             id="tspan275391-1"
             style="stroke-width:5"
             x="295.08829"
             y="126.20206" /></text>
        <rect
           style="fill:#002aff;fill-rule:evenodd;stroke-width:0.235253"
           id="rect6"
           width="6"
           height="6"
           x="192.84071"
           y="126.90417" />
        <rect
           style="fill:#00ffff;fill-rule:evenodd;stroke-width:0.235253"
           id="rect8"
           width="6"
           height="6"
           x="198.84071"
           y="120.90417" />
        <rect
           style="fill:#002aff;fill-rule:evenodd;stroke-width:0.235253"
           id="rect7"
           width="6"
           height="6"
           x="218.40044"
           y="120.90417" />
        <rect
           style="fill:#0070ff;fill-rule:evenodd;stroke-width:0.235253"
           id="rect9"
           width="6"
           height="6"
           x="212.40044"
           y="126.90417" />
        <path
           d="m 208.62646,121.66973 c -4.22781,0.40266 -6.6437,3.2212 -6.44237,11.67683 h 9.26092 c 0,-3.62385 -4.0265,-2.61723 -3.22119,-8.45563"
           style="font-size:5.64444px;font-family:Sniglet;-inkscape-font-specification:Sniglet;text-align:center;text-anchor:middle;fill:#ffffff;fill-opacity:1;fill-rule:evenodd;stroke:#000000;stroke-width:0.603973;stroke-linecap:round;stroke-linejoin:round;stroke-miterlimit:4;stroke-dasharray:none;stroke-opacity:1"
           id="path47144" />
        <path
           d="m 207.82117,124.89093 c -0.15301,1.1717 2.2347,2.96752 3.22119,3.62384 1.20794,0.80529 1.13547,1.74749 2.01323,1.61058 0.41957,-0.37848 -0.56772,-1.22404 0,-1.20794 0.40266,0 -0.0765,0.49526 0.40266,0.8053 0.40265,0 1.61181,0.40264 1.61059,-1.61059 0,-0.80531 -2.41589,-4.83179 -2.41589,-4.83179 0,0 -0.761,-0.76503 -0.8053,-1.40927 0.29394,-0.40023 0.20133,-0.80529 0.20133,-1.20794 -0.40266,-0.40266 -1.20795,1.00661 -1.20795,1.00661 h -0.80529 c 0,0 -0.31407,-0.80207 -1.00663,-1.20794 -0.40265,0 -0.40265,1.20794 -0.40265,1.20794"
           style="font-size:5.64444px;font-family:Sniglet;-inkscape-font-specification:Sniglet;text-align:center;text-anchor:middle;fill:#ffffff;fill-opacity:1;fill-rule:evenodd;stroke:#000000;stroke-width:0.603973;stroke-linecap:round;stroke-linejoin:round;stroke-miterlimit:4;stroke-dasharray:none;stroke-opacity:1"
           id="path47146" />
        <path
           d="m 213.65957,127.91079 a 0.201325,0.201325 0 1 0 0.40265,0 0.201325,0.201325 0 1 0 -0.40265,0 z"
           style="font-size:5.64444px;font-family:Sniglet;-inkscape-font-specification:Sniglet;text-align:center;text-anchor:middle;fill:#000000;fill-opacity:1;fill-rule:evenodd;stroke:#000000;stroke-width:0.603973;stroke-linecap:round;stroke-linejoin:round;stroke-miterlimit:4;stroke-dasharray:none;stroke-opacity:1"
           id="path47148" />
        <path
           d="m 211.47198,123.98497 a 0.60395991,0.20131997 59.999273 1 0 0.34869,-0.20133 0.60395991,0.20131997 59.999273 1 0 -0.34869,0.20133 z"
           style="font-size:5.64444px;font-family:Sniglet;-inkscape-font-specification:Sniglet;text-align:center;text-anchor:middle;fill:#000000;fill-opacity:1;fill-rule:evenodd;stroke:#000000;stroke-width:0.60396;stroke-linecap:round;stroke-linejoin:round;stroke-miterlimit:4;stroke-dasharray:none;stroke-opacity:1"
           id="path47150" />
        <path
           style="font-weight:bold;font-size:4.84869px;font-family:'TeX Gyre Pagella';-inkscape-font-specification:'TeX Gyre Pagella Bold';text-align:center;text-anchor:middle;stroke-width:0.303233;stroke-linecap:round;stroke-linejoin:round"
           d="m 192.86966,113.61861 0.25698,0.0145 c 0.10667,0.005 0.12607,0.0533 0.12607,0.33941 v 2.26918 c 0,0.26183 -0.0242,0.30062 -0.17455,0.31032 l -0.16971,0.01 v 0.1794 c 0.2085,-0.01 0.41699,-0.0145 0.62548,-0.0145 0.21819,0 0.43638,0.005 0.65458,0.0145 v -0.1794 l -0.16971,-0.01 c -0.15031,-0.01 -0.17455,-0.0485 -0.17455,-0.31032 v -0.61093 h 0.0485 c 0.61093,0.69336 0.43638,0.48487 0.93579,1.0958 h 0.83398 v -0.16485 c -0.10183,-0.01 -0.1794,-0.0582 -0.26668,-0.15516 l -0.95034,-1.06671 c 0,0 0.37335,-0.34426 0.67881,-0.5673 0.0776,-0.0582 0.16001,-0.0873 0.23274,-0.0873 h 0.15031 V 114.501 h -0.63033 l -0.51881,0.54791 c -0.11152,0.11637 -0.24243,0.23758 -0.51396,0.47032 v -2.25464 l -0.0388,-0.0291 -0.34911,0.10667 c -0.14061,0.0436 -0.30546,0.0727 -0.58669,0.10182 z m 2.99163,2.01221 c 0,0.77094 0.38305,1.17823 1.11035,1.17823 0.28122,0 0.45093,-0.0485 0.76609,-0.20849 l 0.10667,-0.23274 -0.0582,-0.0727 c -0.22789,0.12607 -0.37335,0.1697 -0.57215,0.1697 -0.24243,0 -0.48002,-0.13091 -0.60123,-0.33456 -0.0824,-0.13576 -0.11152,-0.25213 -0.12122,-0.48486 h 0.63518 c 0.27637,0 0.48971,-0.0291 0.76609,-0.097 v -0.25213 c 0,-0.51881 -0.3588,-0.85337 -0.92125,-0.85337 -0.16486,0 -0.29092,0.0339 -0.42184,0.11152 l -0.22789,0.13576 c -0.32001,0.1891 -0.46062,0.47518 -0.46062,0.94065 z m 0.60124,-0.24243 c 0,-0.48003 0.13091,-0.67397 0.41213,-0.67397 0.27638,0 0.40245,0.19394 0.40245,0.67397 0,0 -0.24729,0.0145 -0.40729,0.0145 -0.097,0 0.0242,0 -0.25214,-0.01 z m 1.73582,1.35278 c 0.20849,-0.01 0.41699,-0.0145 0.62548,-0.0145 0.21819,0 0.43638,0.005 0.65457,0.0145 v -0.1794 l -0.1697,-0.01 c -0.15031,-0.01 -0.17455,-0.0485 -0.17455,-0.31032 v -1.05216 c 0,-0.16971 0.19879,-0.32971 0.41213,-0.32971 0.32002,0 0.45578,0.1697 0.45578,0.5576 v 1.32369 c 0.14546,-0.01 0.29092,-0.0145 0.43638,-0.0145 0.16486,0 0.32486,0.005 0.48972,0.0145 v -0.1794 l -0.16001,-0.01 c -0.15031,-0.01 -0.17455,-0.0485 -0.17455,-0.31032 v -0.90185 c 0,-0.37335 -0.0436,-0.5576 -0.1697,-0.69336 -0.12607,-0.13092 -0.32487,-0.20365 -0.56245,-0.20365 -0.14546,0 -0.26183,0.0291 -0.33941,0.0921 l -0.38789,0.30061 v -0.36365 l -0.0291,-0.0291 c -0.50426,0.16486 -0.64002,0.19395 -0.9067,0.20849 v 0.17456 l 0.21819,0.0145 c 0.11152,0.01 0.12606,0.0533 0.12606,0.33941 v 1.06186 c 0,0.26183 -0.0242,0.30062 -0.17455,0.31032 l -0.1697,0.01 z m 3.04981,-1.06671 c 0,0.69336 0.35881,1.13459 0.9261,1.13459 0.11152,0 0.1891,-0.0194 0.23759,-0.0582 l 0.50426,-0.41214 -0.0242,0.36365 0.0242,0.0388 c 0.14546,-0.01 0.29093,-0.0145 0.43639,-0.0145 0.16485,0 0.32486,0.005 0.48971,0.0145 v -0.1794 l -0.16,-0.01 c -0.15031,-0.01 -0.17456,-0.0485 -0.17456,-0.31032 v -2.97709 l -0.0388,-0.0291 -0.3491,0.10667 c -0.14061,0.0436 -0.30547,0.0727 -0.58669,0.10182 v 0.17455 l 0.25698,0.0145 c 0.10667,0.005 0.12606,0.0533 0.12606,0.33941 v 0.59154 l -0.097,-0.0388 c -0.13576,-0.0533 -0.26668,-0.0824 -0.3879,-0.0824 -0.15515,0 -0.29577,0.0436 -0.42668,0.12607 l -0.34911,0.22788 c -0.27637,0.17941 -0.40729,0.46063 -0.40729,0.87762 z m 0.61094,-0.18425 c 0,-0.48972 0.1697,-0.737 0.51396,-0.737 0.20849,0 0.38305,0.097 0.54305,0.30546 v 0.89216 c 0,0.21819 -0.22788,0.3976 -0.49456,0.3976 -0.34426,0 -0.56245,-0.33456 -0.56245,-0.85822 z m 2.34191,0.7176 c 0,0.39275 0.19879,0.60124 0.5673,0.60124 0.11152,0 0.18909,-0.0194 0.23758,-0.0582 l 0.45093,-0.34911 -0.0242,0.30062 0.0242,0.0388 c 0.14546,-0.01 0.29577,-0.0145 0.44123,-0.0145 0.14061,0 0.28607,0.005 0.42668,0.0145 v -0.1794 l -0.14546,-0.0145 c -0.11152,-0.01 -0.13576,-0.0679 -0.13576,-0.29577 v -1.12489 c 0,-0.42669 -0.28607,-0.68367 -0.77579,-0.68367 -0.20849,0 -0.39759,0.0533 -0.58184,0.16486 l -0.25698,0.15515 v 0.33456 l 0.14546,0.0339 0.10667,-0.24243 c 0.0146,-0.0339 0.15031,-0.0679 0.28122,-0.0679 0.32487,0 0.48002,0.17455 0.49457,0.57214 l -0.42669,0.0873 c -0.61093,0.12607 -0.82912,0.31516 -0.82912,0.7273 z m 0.59154,-0.12606 c 0,-0.23759 0.10182,-0.33456 0.44608,-0.42669 l 0.21819,-0.0582 v 0.57214 c -0.097,0.12607 -0.27153,0.2182 -0.41699,0.2182 -0.15516,0 -0.24728,-0.11637 -0.24728,-0.30547 z m 1.75522,-2.46314 0.25698,0.0145 c 0.10667,0.005 0.12606,0.0533 0.12606,0.33941 v 2.26918 c 0,0.26183 -0.0242,0.30062 -0.17455,0.31032 l -0.16971,0.01 v 0.1794 c 0.2085,-0.01 0.41699,-0.0145 0.62549,-0.0145 0.21819,0 0.43638,0.005 0.65457,0.0145 v -0.1794 l -0.16971,-0.01 c -0.1503,-0.01 -0.17455,-0.0485 -0.17455,-0.31032 v -2.97709 l -0.0388,-0.0291 -0.3491,0.10667 c -0.14062,0.0436 -0.30547,0.0727 -0.58669,0.10182 z m 1.6146,0 0.25698,0.0145 c 0.10667,0.005 0.12607,0.0533 0.12607,0.33941 v 2.26918 c 0,0.26183 -0.0242,0.30062 -0.17456,0.31032 l -0.1697,0.01 v 0.1794 c 0.20849,-0.01 0.41699,-0.0145 0.62548,-0.0145 0.21819,0 0.43638,0.005 0.65457,0.0145 v -0.1794 l -0.1697,-0.01 c -0.15031,-0.01 -0.17455,-0.0485 -0.17455,-0.31032 v -2.97709 l -0.0388,-0.0291 -0.34911,0.10667 c -0.14061,0.0436 -0.30547,0.0727 -0.58669,0.10182 z m 1.60006,0 0.25698,0.0145 c 0.10667,0.005 0.12607,0.0533 0.12607,0.33941 v 2.26918 c 0,0.26183 -0.0242,0.30062 -0.17456,0.31032 l -0.1697,0.01 v 0.1794 c 0.20849,-0.01 0.41699,-0.0145 0.62548,-0.0145 0.21819,0 0.43638,0.005 0.65457,0.0145 v -0.1794 l -0.1697,-0.01 c -0.15031,-0.01 -0.17455,-0.0485 -0.17455,-0.31032 v -0.61093 h 0.0485 c 0.61094,0.69336 0.43638,0.48487 0.9358,1.0958 h 0.83397 v -0.16485 c -0.10182,-0.01 -0.1794,-0.0582 -0.26667,-0.15516 l -0.95035,-1.06671 c 0,0 0.37335,-0.34426 0.67882,-0.5673 0.0776,-0.0582 0.16001,-0.0873 0.23274,-0.0873 h 0.15031 V 114.501 h -0.63033 l -0.51881,0.54791 c -0.11152,0.11637 -0.24244,0.23758 -0.51396,0.47032 v -2.25464 l -0.0388,-0.0291 -0.34911,0.10667 c -0.14061,0.0436 -0.30547,0.0727 -0.58669,0.10182 z m 2.97709,3.12256 c 0.20849,-0.01 0.41698,-0.0145 0.62548,-0.0145 0.21819,0 0.43638,0.005 0.65457,0.0145 v -0.1794 l -0.1697,-0.01 c -0.15031,-0.01 -0.17456,-0.0485 -0.17456,-0.31032 v -1.05216 c 0,-0.16971 0.1988,-0.32971 0.41214,-0.32971 0.32002,0 0.45578,0.1697 0.45578,0.5576 v 1.32369 c 0.14546,-0.01 0.29092,-0.0145 0.43638,-0.0145 0.16486,0 0.32486,0.005 0.48972,0.0145 v -0.1794 l -0.16001,-0.01 c -0.15031,-0.01 -0.17455,-0.0485 -0.17455,-0.31032 v -0.90185 c 0,-0.37335 -0.0436,-0.5576 -0.1697,-0.69336 -0.12607,-0.13092 -0.32487,-0.20365 -0.56245,-0.20365 -0.14546,0 -0.26183,0.0291 -0.33941,0.0921 l -0.3879,0.30061 v -0.36365 l -0.0291,-0.0291 c -0.50426,0.16486 -0.64003,0.19395 -0.9067,0.20849 v 0.17456 l 0.21819,0.0145 c 0.11152,0.01 0.12606,0.0533 0.12606,0.33941 v 1.06186 c 0,0.26183 -0.0242,0.30062 -0.17455,0.31032 l -0.1697,0.01 z m 3.01102,0 c 0.2085,-0.01 0.41699,-0.0145 0.62548,-0.0145 0.2182,0 0.43639,0.005 0.65458,0.0145 v -0.1794 l -0.16971,-0.01 c -0.15031,-0.01 -0.17455,-0.0485 -0.17455,-0.31032 v -1.76977 l -0.0485,-0.0291 c 0,0 -0.20364,0.0727 -0.3394,0.10667 -0.18426,0.0485 -0.27153,0.063 -0.47518,0.0921 l -0.0727,0.01 v 0.17456 l 0.21819,0.0145 c 0.11152,0.01 0.12607,0.0533 0.12607,0.33941 v 1.06186 c 0,0.26183 -0.0242,0.30062 -0.17455,0.31032 l -0.16971,0.01 z m 0.31517,-2.92376 c 0,0.18425 0.14546,0.32971 0.32486,0.32971 0.1794,0 0.32486,-0.14546 0.32486,-0.32486 0,-0.17455 -0.14546,-0.32486 -0.32001,-0.32486 -0.18425,0 -0.32971,0.14546 -0.32971,0.32001 z m 1.26065,3.51045 c 0,0.42184 0.40729,0.68852 1.04732,0.68852 0.84852,0 1.42066,-0.44124 1.42066,-1.08611 0,-0.40729 -0.22788,-0.60124 -0.7176,-0.60124 h -0.11637 l -0.70791,0.0194 c -0.15031,0.005 -0.22789,-0.0485 -0.22789,-0.14547 0,-0.0727 0.0436,-0.13091 0.14061,-0.18909 0.0873,0.005 0.13577,0.01 0.19395,0.01 0.33456,0 0.64488,-0.11152 0.84367,-0.31031 0.15031,-0.15031 0.21335,-0.32002 0.21335,-0.56245 0,-0.0776 -0.005,-0.13576 -0.0242,-0.22789 l 0.37335,0.0194 0.0242,-0.31032 c -0.19879,0.0194 -0.29092,0.0242 -0.39759,0.0242 -0.0388,0 -0.097,0 -0.17455,-0.005 -0.1988,-0.14546 -0.42669,-0.20849 -0.737,-0.20849 -0.62063,0 -1.05217,0.3588 -1.05217,0.86792 0,0.1794 0.063,0.3394 0.1794,0.46547 0.0921,0.097 0.16486,0.14061 0.33456,0.1988 l -0.34425,0.26183 c -0.0485,0.0339 -0.0824,0.13576 -0.0824,0.23273 0,0.17456 0.0873,0.26183 0.32971,0.32487 l -0.39274,0.23273 c -0.0727,0.0436 -0.12607,0.16971 -0.12607,0.30062 z m 0.45578,-0.0582 c 0,-0.1794 0.10182,-0.34911 0.24728,-0.41699 0.0776,-0.0388 0.25213,-0.0533 0.48972,-0.0533 0.59154,0 0.737,0.0776 0.737,0.3879 0,0.33456 -0.32486,0.58669 -0.7564,0.58669 -0.43153,0 -0.7176,-0.20364 -0.7176,-0.50426 z m 0.24243,-2.051 c 0,-0.3491 0.13577,-0.53336 0.39759,-0.53336 0.25698,0 0.3976,0.2085 0.3976,0.59155 0,0.34425 -0.13092,0.52365 -0.3879,0.52365 -0.25213,0 -0.40729,-0.21819 -0.40729,-0.58184 z m 1.98796,1.52249 c 0.2085,-0.01 0.41699,-0.0145 0.62548,-0.0145 0.21819,0 0.43639,0.005 0.65458,0.0145 v -0.1794 l -0.16971,-0.01 c -0.15031,-0.01 -0.17455,-0.0485 -0.17455,-0.31032 v -1.05216 c 0,-0.16971 0.1988,-0.32971 0.41214,-0.32971 0.32001,0 0.45578,0.1697 0.45578,0.56245 v 1.31884 c 0.14546,-0.01 0.29092,-0.0145 0.43638,-0.0145 0.16485,0 0.32486,0.005 0.48972,0.0145 v -0.1794 l -0.16001,-0.01 c -0.15031,-0.01 -0.17455,-0.0485 -0.17455,-0.31032 v -0.90185 c 0,-0.37335 -0.0436,-0.5576 -0.16971,-0.69336 -0.12606,-0.13092 -0.32486,-0.20365 -0.56245,-0.20365 -0.14546,0 -0.26183,0.0291 -0.33941,0.0921 l -0.38789,0.30061 v -1.57097 l -0.0388,-0.0291 -0.34911,0.10667 c -0.12606,0.0388 -0.28607,0.0679 -0.5479,0.10182 v 0.17455 l 0.21819,0.0145 c 0.11152,0.01 0.12607,0.0533 0.12607,0.33941 v 2.26918 c 0,0.26183 -0.0242,0.30062 -0.17455,0.31032 l -0.16971,0.01 z m 2.95285,-1.78432 0.31031,-0.0194 v 1.25581 c 0,0.43153 0.1794,0.61578 0.60124,0.61578 0.15031,0 0.27153,-0.0339 0.31517,-0.0873 l 0.23758,-0.28607 -0.0388,-0.0921 c -0.10182,0.0485 -0.14546,0.063 -0.22304,0.063 -0.22789,0 -0.30062,-0.0776 -0.30062,-0.31516 v -1.15399 h 0.51396 l 0.0388,-0.31517 c -0.18425,0.0194 -0.3685,0.0291 -0.55275,0.0291 v -0.28122 c 0,-0.25698 0.0145,-0.41699 0.0582,-0.65942 l -0.0679,-0.0485 c -0.19395,0.0921 -0.34426,0.15031 -0.59154,0.24244 0.0145,0.25698 0.0194,0.34425 0.0194,0.44608 v 0.29092 l -0.32001,0.20849 z"
           id="text10"
           aria-label="kendallknight" />
      </g>
    </g>
  </g>
  <style
     type="text/css"
     id="style10296">
	.st0{fill:#75AADB;}
	.st1{fill:#4D4D4D;}
	.st2{fill:#FFFFFF;}
	.st3{fill:url(#SVGID_1_);}
	.st4{fill:url(#SVGID_2_);}
	.st5{fill:url(#SVGID_3_);}
	.st6{fill:url(#SVGID_4_);}
	.st7{fill:url(#SVGID_5_);}
	.st8{fill:url(#SVGID_6_);}
	.st9{fill:url(#SVGID_7_);}
	.st10{fill:url(#SVGID_8_);}
	.st11{fill:url(#SVGID_9_);}
	.st12{fill:url(#SVGID_10_);}
	.st13{opacity:0.18;fill:url(#SVGID_11_);}
	.st14{opacity:0.3;}
</style>
  <style
     type="text/css"
     id="style10296-7">
	.st0{fill:#75AADB;}
	.st1{fill:#4D4D4D;}
	.st2{fill:#FFFFFF;}
	.st3{fill:url(#SVGID_1_);}
	.st4{fill:url(#SVGID_2_);}
	.st5{fill:url(#SVGID_3_);}
	.st6{fill:url(#SVGID_4_);}
	.st7{fill:url(#SVGID_5_);}
	.st8{fill:url(#SVGID_6_);}
	.st9{fill:url(#SVGID_7_);}
	.st10{fill:url(#SVGID_8_);}
	.st11{fill:url(#SVGID_9_);}
	.st12{fill:url(#SVGID_10_);}
	.st13{opacity:0.18;fill:url(#SVGID_11_);}
	.st14{opacity:0.3;}
</style>
  <style
     type="text/css"
     id="style10296-4">
	.st0{fill:#75AADB;}
	.st1{fill:#4D4D4D;}
	.st2{fill:#FFFFFF;}
	.st3{fill:url(#SVGID_1_);}
	.st4{fill:url(#SVGID_2_);}
	.st5{fill:url(#SVGID_3_);}
	.st6{fill:url(#SVGID_4_);}
	.st7{fill:url(#SVGID_5_);}
	.st8{fill:url(#SVGID_6_);}
	.st9{fill:url(#SVGID_7_);}
	.st10{fill:url(#SVGID_8_);}
	.st11{fill:url(#SVGID_9_);}
	.st12{fill:url(#SVGID_10_);}
	.st13{opacity:0.18;fill:url(#SVGID_11_);}
	.st14{opacity:0.3;}
</style>
  <style
     type="text/css"
     id="style10296-9">
	.st0{fill:#75AADB;}
	.st1{fill:#4D4D4D;}
	.st2{fill:#FFFFFF;}
	.st3{fill:url(#SVGID_1_);}
	.st4{fill:url(#SVGID_2_);}
	.st5{fill:url(#SVGID_3_);}
	.st6{fill:url(#SVGID_4_);}
	.st7{fill:url(#SVGID_5_);}
	.st8{fill:url(#SVGID_6_);}
	.st9{fill:url(#SVGID_7_);}
	.st10{fill:url(#SVGID_8_);}
	.st11{fill:url(#SVGID_9_);}
	.st12{fill:url(#SVGID_10_);}
	.st13{opacity:0.18;fill:url(#SVGID_11_);}
	.st14{opacity:0.3;}
</style>
  <style
     type="text/css"
     id="style10296-2">
	.st0{fill:#75AADB;}
	.st1{fill:#4D4D4D;}
	.st2{fill:#FFFFFF;}
	.st3{fill:url(#SVGID_1_);}
	.st4{fill:url(#SVGID_2_);}
	.st5{fill:url(#SVGID_3_);}
	.st6{fill:url(#SVGID_4_);}
	.st7{fill:url(#SVGID_5_);}
	.st8{fill:url(#SVGID_6_);}
	.st9{fill:url(#SVGID_7_);}
	.st10{fill:url(#SVGID_8_);}
	.st11{fill:url(#SVGID_9_);}
	.st12{fill:url(#SVGID_10_);}
	.st13{opacity:0.18;fill:url(#SVGID_11_);}
	.st14{opacity:0.3;}
</style>
  <style
     type="text/css"
     id="style10296-6">
	.st0{fill:#75AADB;}
	.st1{fill:#4D4D4D;}
	.st2{fill:#FFFFFF;}
	.st3{fill:url(#SVGID_1_);}
	.st4{fill:url(#SVGID_2_);}
	.st5{fill:url(#SVGID_3_);}
	.st6{fill:url(#SVGID_4_);}
	.st7{fill:url(#SVGID_5_);}
	.st8{fill:url(#SVGID_6_);}
	.st9{fill:url(#SVGID_7_);}
	.st10{fill:url(#SVGID_8_);}
	.st11{fill:url(#SVGID_9_);}
	.st12{fill:url(#SVGID_10_);}
	.st13{opacity:0.18;fill:url(#SVGID_11_);}
	.st14{opacity:0.3;}
</style>
  <style
     type="text/css"
     id="style10296-3">
	.st0{fill:#75AADB;}
	.st1{fill:#4D4D4D;}
	.st2{fill:#FFFFFF;}
	.st3{fill:url(#SVGID_1_);}
	.st4{fill:url(#SVGID_2_);}
	.st5{fill:url(#SVGID_3_);}
	.st6{fill:url(#SVGID_4_);}
	.st7{fill:url(#SVGID_5_);}
	.st8{fill:url(#SVGID_6_);}
	.st9{fill:url(#SVGID_7_);}
	.st10{fill:url(#SVGID_8_);}
	.st11{fill:url(#SVGID_9_);}
	.st12{fill:url(#SVGID_10_);}
	.st13{opacity:0.18;fill:url(#SVGID_11_);}
	.st14{opacity:0.3;}
</style>
  <style
     type="text/css"
     id="style10296-7-1">
	.st0{fill:#75AADB;}
	.st1{fill:#4D4D4D;}
	.st2{fill:#FFFFFF;}
	.st3{fill:url(#SVGID_1_);}
	.st4{fill:url(#SVGID_2_);}
	.st5{fill:url(#SVGID_3_);}
	.st6{fill:url(#SVGID_4_);}
	.st7{fill:url(#SVGID_5_);}
	.st8{fill:url(#SVGID_6_);}
	.st9{fill:url(#SVGID_7_);}
	.st10{fill:url(#SVGID_8_);}
	.st11{fill:url(#SVGID_9_);}
	.st12{fill:url(#SVGID_10_);}
	.st13{opacity:0.18;fill:url(#SVGID_11_);}
	.st14{opacity:0.3;}
</style>
  <style
     type="text/css"
     id="style10296-4-5">
	.st0{fill:#75AADB;}
	.st1{fill:#4D4D4D;}
	.st2{fill:#FFFFFF;}
	.st3{fill:url(#SVGID_1_);}
	.st4{fill:url(#SVGID_2_);}
	.st5{fill:url(#SVGID_3_);}
	.st6{fill:url(#SVGID_4_);}
	.st7{fill:url(#SVGID_5_);}
	.st8{fill:url(#SVGID_6_);}
	.st9{fill:url(#SVGID_7_);}
	.st10{fill:url(#SVGID_8_);}
	.st11{fill:url(#SVGID_9_);}
	.st12{fill:url(#SVGID_10_);}
	.st13{opacity:0.18;fill:url(#SVGID_11_);}
	.st14{opacity:0.3;}
</style>
  <style
     type="text/css"
     id="style10296-9-5">
	.st0{fill:#75AADB;}
	.st1{fill:#4D4D4D;}
	.st2{fill:#FFFFFF;}
	.st3{fill:url(#SVGID_1_);}
	.st4{fill:url(#SVGID_2_);}
	.st5{fill:url(#SVGID_3_);}
	.st6{fill:url(#SVGID_4_);}
	.st7{fill:url(#SVGID_5_);}
	.st8{fill:url(#SVGID_6_);}
	.st9{fill:url(#SVGID_7_);}
	.st10{fill:url(#SVGID_8_);}
	.st11{fill:url(#SVGID_9_);}
	.st12{fill:url(#SVGID_10_);}
	.st13{opacity:0.18;fill:url(#SVGID_11_);}
	.st14{opacity:0.3;}
</style>
  <style
     type="text/css"
     id="style10296-2-4">
	.st0{fill:#75AADB;}
	.st1{fill:#4D4D4D;}
	.st2{fill:#FFFFFF;}
	.st3{fill:url(#SVGID_1_);}
	.st4{fill:url(#SVGID_2_);}
	.st5{fill:url(#SVGID_3_);}
	.st6{fill:url(#SVGID_4_);}
	.st7{fill:url(#SVGID_5_);}
	.st8{fill:url(#SVGID_6_);}
	.st9{fill:url(#SVGID_7_);}
	.st10{fill:url(#SVGID_8_);}
	.st11{fill:url(#SVGID_9_);}
	.st12{fill:url(#SVGID_10_);}
	.st13{opacity:0.18;fill:url(#SVGID_11_);}
	.st14{opacity:0.3;}
</style>
</svg>
