<?xml version="1.0" encoding="UTF-8" standalone="no"?>
<!-- Created with Inkscape (http://www.inkscape.org/) -->

<svg
   width="43.929592mm"
   height="50.831615mm"
   viewBox="0 0 43.929592 50.831615"
   version="1.1"
   id="svg5"
   inkscape:version="1.1.2 (0a00cf5339, 2022-02-04)"
   sodipodi:docname="logo.svg"
   xmlns:inkscape="http://www.inkscape.org/namespaces/inkscape"
   xmlns:sodipodi="http://sodipodi.sourceforge.net/DTD/sodipodi-0.dtd"
   xmlns="http://www.w3.org/2000/svg"
   xmlns:svg="http://www.w3.org/2000/svg">
  <sodipodi:namedview
     id="namedview7"
     pagecolor="#ffffff"
     bordercolor="#000000"
     borderopacity="0.25"
     inkscape:pageshadow="2"
     inkscape:pageopacity="0.0"
     inkscape:pagecheckerboard="0"
     inkscape:document-units="mm"
     showgrid="false"
     showguides="true"
     inkscape:guide-bbox="true"
     inkscape:zoom="4"
     inkscape:cx="108.875"
     inkscape:cy="94"
     inkscape:window-width="1920"
     inkscape:window-height="1043"
     inkscape:window-x="0"
     inkscape:window-y="0"
     inkscape:window-maximized="1"
     inkscape:current-layer="g4629"
     fit-margin-top="0"
     fit-margin-left="0"
     fit-margin-right="0"
     fit-margin-bottom="0">
    <sodipodi:guide
       position="12.717529,39.084416"
       orientation="0,-1"
       id="guide1005" />
    <sodipodi:guide
       position="23.960895,14.026529"
       orientation="0,-1"
       id="guide955" />
    <sodipodi:guide
       position="70.109863,40.852787"
       orientation="0,-1"
       id="guide1298" />
    <sodipodi:guide
       position="90.416647,12.008852"
       orientation="0,-1"
       id="guide1300" />
    <sodipodi:guide
       position="146.81303,-69.84215"
       orientation="1,0"
       id="guide5066" />
    <sodipodi:guide
       position="169.37843,-75.419341"
       orientation="1,0"
       id="guide5068" />
    <sodipodi:guide
       position="142.09859,-66.474969"
       orientation="1,0"
       id="guide5089" />
    <sodipodi:guide
       position="142.09859,-72.269267"
       orientation="0,-1"
       id="guide5186" />
    <sodipodi:guide
       position="151.66097,-76.785546"
       orientation="0,-1"
       id="guide5302" />
    <sodipodi:guide
       position="172.97351,-68.957328"
       orientation="0,-1"
       id="guide5532" />
    <sodipodi:guide
       position="177.93284,-68.233866"
       orientation="1,0"
       id="guide6636" />
    <sodipodi:guide
       position="179.1257,-62.485652"
       orientation="0,-1"
       id="guide6638" />
    <sodipodi:guide
       position="15.218191,13.497206"
       orientation="1,0"
       id="guide317730" />
    <sodipodi:guide
       position="21.964806,50.209163"
       orientation="1,0"
       id="guide47262" />
    <sodipodi:guide
       position="4.4979165,9.3581779"
       orientation="1,0"
       id="guide4557" />
  </sodipodi:namedview>
  <defs
     id="defs2">
    <inkscape:perspective
       sodipodi:type="inkscape:persp3d"
       inkscape:vp_x="0 : 389.7996 : 1"
       inkscape:vp_y="0 : 999.99992 : 0"
       inkscape:vp_z="1500 : 389.7996 : 1"
       inkscape:persp3d-origin="749.99998 : 95.754155 : 1"
       id="perspective4362" />
    <clipPath
       id="clp12">
      <path
         d="m 45.315,71.927 h 12.92 v 15.867 h -12.92 z"
         id="path184"
         inkscape:connector-curvature="0" />
    </clipPath>
    <clipPath
       id="clp21">
      <path
         d="m 123.91,72.178 h 26.23 v 15.294 h -26.23 z"
         id="path592"
         inkscape:connector-curvature="0" />
    </clipPath>
    <clipPath
       id="clp9">
      <path
         d="m 413.96,49.857 h 31.76 v 8.719 h -31.76 z"
         id="path100"
         inkscape:connector-curvature="0" />
    </clipPath>
    <inkscape:perspective
       sodipodi:type="inkscape:persp3d"
       inkscape:vp_x="0 : 389.7996 : 1"
       inkscape:vp_y="0 : 999.99992 : 0"
       inkscape:vp_z="1500 : 389.7996 : 1"
       inkscape:persp3d-origin="749.99998 : 95.754155 : 1"
       id="perspective4362-5" />
    <clipPath
       id="clp12-3">
      <path
         d="m 45.315,71.927 h 12.92 v 15.867 h -12.92 z"
         id="path184-5"
         inkscape:connector-curvature="0" />
    </clipPath>
    <clipPath
       id="clp21-6">
      <path
         d="m 123.91,72.178 h 26.23 v 15.294 h -26.23 z"
         id="path592-2"
         inkscape:connector-curvature="0" />
    </clipPath>
    <clipPath
       id="clp9-9">
      <path
         d="m 413.96,49.857 h 31.76 v 8.719 h -31.76 z"
         id="path100-1"
         inkscape:connector-curvature="0" />
    </clipPath>
    <inkscape:perspective
       sodipodi:type="inkscape:persp3d"
       inkscape:vp_x="0 : 635.96801 : 1"
       inkscape:vp_y="0 : 999.99996 : 0"
       inkscape:vp_z="1500 : 635.96801 : 1"
       inkscape:persp3d-origin="750 : 341.92255 : 1"
       id="perspective4362-9" />
    <clipPath
       id="clp12-37">
      <path
         d="m 45.315,71.927 h 12.92 v 15.867 h -12.92 z"
         id="path184-4"
         inkscape:connector-curvature="0" />
    </clipPath>
    <clipPath
       id="clp21-5">
      <path
         d="m 123.91,72.178 h 26.23 v 15.294 h -26.23 z"
         id="path592-25"
         inkscape:connector-curvature="0" />
    </clipPath>
    <clipPath
       id="clp9-4">
      <path
         d="m 413.96,49.857 h 31.76 v 8.719 h -31.76 z"
         id="path100-7"
         inkscape:connector-curvature="0" />
    </clipPath>
    <inkscape:perspective
       sodipodi:type="inkscape:persp3d"
       inkscape:vp_x="0 : 635.96801 : 1"
       inkscape:vp_y="0 : 999.99996 : 0"
       inkscape:vp_z="1500 : 635.96801 : 1"
       inkscape:persp3d-origin="750 : 341.92255 : 1"
       id="perspective4362-6" />
    <clipPath
       id="clp12-8">
      <path
         d="m 45.315,71.927 h 12.92 v 15.867 h -12.92 z"
         id="path184-9"
         inkscape:connector-curvature="0" />
    </clipPath>
    <clipPath
       id="clp21-2">
      <path
         d="m 123.91,72.178 h 26.23 v 15.294 h -26.23 z"
         id="path592-6"
         inkscape:connector-curvature="0" />
    </clipPath>
    <clipPath
       id="clp9-6">
      <path
         d="m 413.96,49.857 h 31.76 v 8.719 h -31.76 z"
         id="path100-4"
         inkscape:connector-curvature="0" />
    </clipPath>
    <inkscape:perspective
       sodipodi:type="inkscape:persp3d"
       inkscape:vp_x="0 : 635.96801 : 1"
       inkscape:vp_y="0 : 999.99996 : 0"
       inkscape:vp_z="1500 : 635.96801 : 1"
       inkscape:persp3d-origin="750 : 341.92255 : 1"
       id="perspective4362-53" />
    <clipPath
       id="clp12-5">
      <path
         d="m 45.315,71.927 h 12.92 v 15.867 h -12.92 z"
         id="path184-6"
         inkscape:connector-curvature="0" />
    </clipPath>
    <clipPath
       id="clp21-29">
      <path
         d="m 123.91,72.178 h 26.23 v 15.294 h -26.23 z"
         id="path592-1"
         inkscape:connector-curvature="0" />
    </clipPath>
    <clipPath
       id="clp9-2">
      <path
         d="m 413.96,49.857 h 31.76 v 8.719 h -31.76 z"
         id="path100-70"
         inkscape:connector-curvature="0" />
    </clipPath>
    <inkscape:perspective
       sodipodi:type="inkscape:persp3d"
       inkscape:vp_x="0 : 635.96801 : 1"
       inkscape:vp_y="0 : 999.99996 : 0"
       inkscape:vp_z="1500 : 635.96801 : 1"
       inkscape:persp3d-origin="750 : 341.92255 : 1"
       id="perspective4362-5356" />
    <clipPath
       id="clp12-2">
      <path
         d="m 45.315,71.927 h 12.92 v 15.867 h -12.92 z"
         id="path184-91"
         inkscape:connector-curvature="0" />
    </clipPath>
    <clipPath
       id="clp21-27">
      <path
         d="m 123.91,72.178 h 26.23 v 15.294 h -26.23 z"
         id="path592-0"
         inkscape:connector-curvature="0" />
    </clipPath>
    <clipPath
       id="clp9-93">
      <path
         d="m 413.96,49.857 h 31.76 v 8.719 h -31.76 z"
         id="path100-6"
         inkscape:connector-curvature="0" />
    </clipPath>
    <inkscape:perspective
       sodipodi:type="inkscape:persp3d"
       inkscape:vp_x="0 : 389.7996 : 1"
       inkscape:vp_y="0 : 999.99992 : 0"
       inkscape:vp_z="1500 : 389.7996 : 1"
       inkscape:persp3d-origin="749.99998 : 95.754155 : 1"
       id="perspective4362-535" />
    <clipPath
       id="clp12-6">
      <path
         d="m 45.315,71.927 h 12.92 v 15.867 h -12.92 z"
         id="path184-2"
         inkscape:connector-curvature="0" />
    </clipPath>
    <clipPath
       id="clp21-9">
      <path
         d="m 123.91,72.178 h 26.23 v 15.294 h -26.23 z"
         id="path592-12"
         inkscape:connector-curvature="0" />
    </clipPath>
    <clipPath
       id="clp9-7">
      <path
         d="m 413.96,49.857 h 31.76 v 8.719 h -31.76 z"
         id="path100-0"
         inkscape:connector-curvature="0" />
    </clipPath>
    <inkscape:perspective
       sodipodi:type="inkscape:persp3d"
       inkscape:vp_x="0 : 389.7996 : 1"
       inkscape:vp_y="0 : 999.99992 : 0"
       inkscape:vp_z="1500 : 389.7996 : 1"
       inkscape:persp3d-origin="749.99998 : 95.754155 : 1"
       id="perspective4362-5-0" />
    <clipPath
       id="clp12-3-6">
      <path
         d="m 45.315,71.927 h 12.92 v 15.867 h -12.92 z"
         id="path184-5-2"
         inkscape:connector-curvature="0" />
    </clipPath>
    <clipPath
       id="clp21-6-6">
      <path
         d="m 123.91,72.178 h 26.23 v 15.294 h -26.23 z"
         id="path592-2-1"
         inkscape:connector-curvature="0" />
    </clipPath>
    <clipPath
       id="clp9-9-8">
      <path
         d="m 413.96,49.857 h 31.76 v 8.719 h -31.76 z"
         id="path100-1-7"
         inkscape:connector-curvature="0" />
    </clipPath>
    <inkscape:perspective
       sodipodi:type="inkscape:persp3d"
       inkscape:vp_x="0 : 635.96801 : 1"
       inkscape:vp_y="0 : 999.99996 : 0"
       inkscape:vp_z="1500 : 635.96801 : 1"
       inkscape:persp3d-origin="750 : 341.92255 : 1"
       id="perspective4362-9-9" />
    <clipPath
       id="clp12-37-2">
      <path
         d="m 45.315,71.927 h 12.92 v 15.867 h -12.92 z"
         id="path184-4-0"
         inkscape:connector-curvature="0" />
    </clipPath>
    <clipPath
       id="clp21-5-2">
      <path
         d="m 123.91,72.178 h 26.23 v 15.294 h -26.23 z"
         id="path592-25-3"
         inkscape:connector-curvature="0" />
    </clipPath>
    <clipPath
       id="clp9-4-7">
      <path
         d="m 413.96,49.857 h 31.76 v 8.719 h -31.76 z"
         id="path100-7-5"
         inkscape:connector-curvature="0" />
    </clipPath>
    <inkscape:perspective
       sodipodi:type="inkscape:persp3d"
       inkscape:vp_x="0 : 635.96801 : 1"
       inkscape:vp_y="0 : 999.99996 : 0"
       inkscape:vp_z="1500 : 635.96801 : 1"
       inkscape:persp3d-origin="750 : 341.92255 : 1"
       id="perspective4362-6-9" />
    <clipPath
       id="clp12-8-2">
      <path
         d="m 45.315,71.927 h 12.92 v 15.867 h -12.92 z"
         id="path184-9-2"
         inkscape:connector-curvature="0" />
    </clipPath>
    <clipPath
       id="clp21-2-8">
      <path
         d="m 123.91,72.178 h 26.23 v 15.294 h -26.23 z"
         id="path592-6-9"
         inkscape:connector-curvature="0" />
    </clipPath>
    <clipPath
       id="clp9-6-7">
      <path
         d="m 413.96,49.857 h 31.76 v 8.719 h -31.76 z"
         id="path100-4-3"
         inkscape:connector-curvature="0" />
    </clipPath>
    <inkscape:perspective
       sodipodi:type="inkscape:persp3d"
       inkscape:vp_x="0 : 635.96801 : 1"
       inkscape:vp_y="0 : 999.99996 : 0"
       inkscape:vp_z="1500 : 635.96801 : 1"
       inkscape:persp3d-origin="750 : 341.92255 : 1"
       id="perspective4362-53-6" />
    <clipPath
       id="clp12-5-1">
      <path
         d="m 45.315,71.927 h 12.92 v 15.867 h -12.92 z"
         id="path184-6-2"
         inkscape:connector-curvature="0" />
    </clipPath>
    <clipPath
       id="clp21-29-9">
      <path
         d="m 123.91,72.178 h 26.23 v 15.294 h -26.23 z"
         id="path592-1-3"
         inkscape:connector-curvature="0" />
    </clipPath>
    <clipPath
       id="clp9-2-1">
      <path
         d="m 413.96,49.857 h 31.76 v 8.719 h -31.76 z"
         id="path100-70-9"
         inkscape:connector-curvature="0" />
    </clipPath>
    <inkscape:perspective
       sodipodi:type="inkscape:persp3d"
       inkscape:vp_x="0 : 70.333504 : 1"
       inkscape:vp_y="0 : 1000 : 0"
       inkscape:vp_z="301.66699 : 70.333504 : 1"
       inkscape:persp3d-origin="150.8335 : 46.889002 : 1"
       id="perspective326" />
  </defs>
  <g
     inkscape:label="Layer 1"
     inkscape:groupmode="layer"
     id="layer1"
     transform="translate(-186.65577,-98.20731)">
    <text
       xml:space="preserve"
       style="font-size:4.23333px;font-family:sans-serif;-inkscape-font-specification:sans-serif;fill:#fdf0e3;fill-opacity:1;stroke:#4a280d;stroke-width:15;stroke-linecap:round;stroke-linejoin:round;stroke-miterlimit:4;stroke-dasharray:none"
       x="214.69817"
       y="116.24603"
       id="text265343"><tspan
         sodipodi:role="line"
         id="tspan265341"
         style="stroke-width:15;stroke-miterlimit:4;stroke-dasharray:none"
         x="214.69817"
         y="116.24603" /></text>
    <text
       xml:space="preserve"
       style="font-size:4.23333px;font-family:sans-serif;-inkscape-font-specification:sans-serif;fill:#fdf0e3;fill-opacity:1;stroke:#4a280d;stroke-width:15;stroke-linecap:round;stroke-linejoin:round;stroke-miterlimit:4;stroke-dasharray:none"
       x="214.23691"
       y="114.62688"
       id="text268683"><tspan
         sodipodi:role="line"
         id="tspan268681"
         style="stroke-width:15"
         x="214.23691"
         y="114.62688" /></text>
    <text
       xml:space="preserve"
       style="font-size:4.23333px;font-family:sans-serif;-inkscape-font-specification:sans-serif;fill:#fdf0e3;fill-opacity:1;stroke:#4a280d;stroke-width:5;stroke-linecap:round;stroke-linejoin:round;stroke-miterlimit:4;stroke-dasharray:none"
       x="242.03822"
       y="123.46563"
       id="text270271"><tspan
         sodipodi:role="line"
         id="tspan270269"
         style="stroke-width:5;stroke-miterlimit:4;stroke-dasharray:none"
         x="242.03822"
         y="123.46563" /></text>
    <text
       xml:space="preserve"
       style="font-size:4.23333px;font-family:sans-serif;-inkscape-font-specification:sans-serif;fill:#fdf0e3;fill-opacity:1;stroke:#4a280d;stroke-width:4.99999;stroke-linecap:round;stroke-linejoin:round;stroke-miterlimit:4;stroke-dasharray:none"
       x="244.82349"
       y="125.95525"
       id="text275393"><tspan
         sodipodi:role="line"
         id="tspan275391"
         style="stroke-width:5"
         x="244.82349"
         y="125.95525" /></text>
    <g
       id="g193503"
       transform="translate(0,0.18106276)">
      <g
         id="g193548">
        <path
           style="opacity:1;fill:#d18b47;fill-opacity:1;stroke:none;stroke-width:0.3;stroke-linecap:butt;stroke-linejoin:bevel"
           d="m 208.62058,98.648699 -1e-5,49.586711 21.42687,-12.39668 v -24.79335 z"
           id="path53729" />
        <path
           style="opacity:1;fill:#ffce9e;fill-opacity:1;stroke:none;stroke-width:0.3;stroke-linecap:butt;stroke-linejoin:bevel"
           d="m 208.62058,98.648699 -21.42687,12.396681 v 24.79335 l 21.42686,12.39668 z"
           id="path47315" />
        <path
           sodipodi:type="star"
           style="fill:none;fill-opacity:1;stroke:#000000;stroke-width:73.9932;stroke-miterlimit:4;stroke-dasharray:none;stroke-opacity:1;opacity:1"
           id="path4560"
           sodipodi:sides="6"
           sodipodi:cx="-5551.2134"
           sodipodi:cy="-204.52565"
           sodipodi:r1="1701.6108"
           sodipodi:r2="1473.6381"
           sodipodi:arg1="1.0471976"
           sodipodi:arg2="1.5707963"
           inkscape:flatsided="true"
           inkscape:rounded="0"
           inkscape:randomized="0"
           inkscape:transform-center-x="1.5731476e-05"
           inkscape:transform-center-y="7.9344316e-05"
           transform="matrix(0,0.01457052,-0.01454011,0,205.64675,204.32612)"
           d="m -4700.408,1269.1126 -1701.6109,-10e-5 -850.8053,-1473.63823 850.8055,-1473.63817 1701.6108,10e-5 850.8054,1473.63823 z" />
        <text
           xml:space="preserve"
           style="font-size:4.23333px;font-family:sans-serif;-inkscape-font-specification:sans-serif;fill:#fdf0e3;fill-opacity:1;stroke:#4a280d;stroke-width:15;stroke-linecap:round;stroke-linejoin:round;stroke-miterlimit:4;stroke-dasharray:none"
           x="264.96298"
           y="116.49283"
           id="text265343-7"><tspan
             sodipodi:role="line"
             id="tspan265341-8"
             style="stroke-width:15;stroke-miterlimit:4;stroke-dasharray:none"
             x="264.96298"
             y="116.49283" /></text>
        <text
           xml:space="preserve"
           style="font-size:4.23333px;font-family:sans-serif;-inkscape-font-specification:sans-serif;fill:#fdf0e3;fill-opacity:1;stroke:#4a280d;stroke-width:15;stroke-linecap:round;stroke-linejoin:round;stroke-miterlimit:4;stroke-dasharray:none"
           x="264.50171"
           y="114.87369"
           id="text268683-6"><tspan
             sodipodi:role="line"
             id="tspan268681-8"
             style="stroke-width:15"
             x="264.50171"
             y="114.87369" /></text>
        <text
           xml:space="preserve"
           style="font-size:4.23333px;font-family:sans-serif;-inkscape-font-specification:sans-serif;fill:#fdf0e3;fill-opacity:1;stroke:#4a280d;stroke-width:5;stroke-linecap:round;stroke-linejoin:round;stroke-miterlimit:4;stroke-dasharray:none"
           x="292.30304"
           y="123.71243"
           id="text270271-8"><tspan
             sodipodi:role="line"
             id="tspan270269-4"
             style="stroke-width:5;stroke-miterlimit:4;stroke-dasharray:none"
             x="292.30304"
             y="123.71243" /></text>
        <text
           xml:space="preserve"
           style="font-size:4.23333px;font-family:sans-serif;-inkscape-font-specification:sans-serif;fill:#fdf0e3;fill-opacity:1;stroke:#4a280d;stroke-width:4.99999;stroke-linecap:round;stroke-linejoin:round;stroke-miterlimit:4;stroke-dasharray:none"
           x="295.08829"
           y="126.20206"
           id="text275393-3"><tspan
             sodipodi:role="line"
             id="tspan275391-1"
             style="stroke-width:5"
             x="295.08829"
             y="126.20206" /></text>
        <g
           id="g4629"
           transform="translate(0,0.99511959)">
          <g
             id="g4599"
             transform="translate(0,-0.87255116)">
            <g
               id="g4529"
               transform="translate(1.5538095)">
              <path
                 d="m 217.78608,114.44731 c -4.22781,0.40266 -6.6437,3.2212 -6.44237,11.67683 h 9.26092 c 0,-3.62385 -4.0265,-2.61723 -3.22119,-8.45563"
                 style="font-size:5.64444px;font-family:Sniglet;-inkscape-font-specification:Sniglet;text-align:center;text-anchor:middle;fill:#ffffff;fill-opacity:1;fill-rule:evenodd;stroke:#000000;stroke-width:0.603973;stroke-linecap:round;stroke-linejoin:round;stroke-miterlimit:4;stroke-dasharray:none;stroke-opacity:1"
                 id="path47144" />
              <path
                 d="m 216.98079,117.66851 c -0.15301,1.1717 2.2347,2.96752 3.22119,3.62384 1.20794,0.80529 1.13547,1.74749 2.01323,1.61058 0.41957,-0.37848 -0.56772,-1.22404 0,-1.20794 0.40266,0 -0.0765,0.49526 0.40266,0.8053 0.40265,0 1.61181,0.40264 1.61059,-1.61059 0,-0.80531 -2.41589,-4.83179 -2.41589,-4.83179 0,0 -0.761,-0.76503 -0.8053,-1.40927 0.29394,-0.40023 0.20133,-0.80529 0.20133,-1.20794 -0.40266,-0.40266 -1.20795,1.00661 -1.20795,1.00661 h -0.80529 c 0,0 -0.31407,-0.80207 -1.00663,-1.20794 -0.40265,0 -0.40265,1.20794 -0.40265,1.20794"
                 style="font-size:5.64444px;font-family:Sniglet;-inkscape-font-specification:Sniglet;text-align:center;text-anchor:middle;fill:#ffffff;fill-opacity:1;fill-rule:evenodd;stroke:#000000;stroke-width:0.603973;stroke-linecap:round;stroke-linejoin:round;stroke-miterlimit:4;stroke-dasharray:none;stroke-opacity:1"
                 id="path47146" />
              <path
                 d="m 222.81919,120.68837 a 0.201325,0.201325 0 1 0 0.40265,0 0.201325,0.201325 0 1 0 -0.40265,0 z"
                 style="font-size:5.64444px;font-family:Sniglet;-inkscape-font-specification:Sniglet;text-align:center;text-anchor:middle;fill:#000000;fill-opacity:1;fill-rule:evenodd;stroke:#000000;stroke-width:0.603973;stroke-linecap:round;stroke-linejoin:round;stroke-miterlimit:4;stroke-dasharray:none;stroke-opacity:1"
                 id="path47148" />
              <path
                 d="m 220.6316,116.76255 a 0.60395991,0.20131997 59.999273 1 0 0.34869,-0.20133 0.60395991,0.20131997 59.999273 1 0 -0.34869,0.20133 z"
                 style="font-size:5.64444px;font-family:Sniglet;-inkscape-font-specification:Sniglet;text-align:center;text-anchor:middle;fill:#000000;fill-opacity:1;fill-rule:evenodd;stroke:#000000;stroke-width:0.60396;stroke-linecap:round;stroke-linejoin:round;stroke-miterlimit:4;stroke-dasharray:none;stroke-opacity:1"
                 id="path47150" />
            </g>
            <path
               d="m 197.90125,114.44731 c 4.22782,0.40266 6.64371,3.2212 6.44238,11.67683 h -9.26092 c 0,-3.62385 4.0265,-2.61723 3.22119,-8.45563"
               style="font-size:5.64444px;font-family:Sniglet;-inkscape-font-specification:Sniglet;text-align:center;text-anchor:middle;fill:#000000;fill-opacity:1;fill-rule:evenodd;stroke:#000000;stroke-width:0.603973;stroke-linecap:round;stroke-linejoin:round;stroke-miterlimit:4;stroke-dasharray:none;stroke-opacity:1"
               id="path47222" />
            <path
               d="m 198.70655,117.66851 c 0.15301,1.1717 -2.2347,2.96752 -3.22119,3.62384 -1.20794,0.80529 -1.13547,1.74749 -2.01324,1.61058 -0.41956,-0.37848 0.56773,-1.22404 0,-1.20794 -0.40265,0 0.0765,0.49526 -0.40265,0.8053 -0.40265,0 -1.61181,0.40264 -1.61059,-1.61059 0,-0.80531 2.41589,-4.83179 2.41589,-4.83179 0,0 0.761,-0.76503 0.8053,-1.40927 -0.29394,-0.40023 -0.20133,-0.80529 -0.20133,-1.20794 0.40266,-0.40266 1.20795,1.00661 1.20795,1.00661 h 0.80529 c 0,0 0.31407,-0.80207 1.00663,-1.20794 0.40264,0 0.40264,1.20794 0.40264,1.20794"
               style="font-size:5.64444px;font-family:Sniglet;-inkscape-font-specification:Sniglet;text-align:center;text-anchor:middle;fill:#000000;fill-opacity:1;fill-rule:evenodd;stroke:#000000;stroke-width:0.603973;stroke-linecap:round;stroke-linejoin:round;stroke-miterlimit:4;stroke-dasharray:none;stroke-opacity:1"
               id="path47224" />
            <path
               d="m 192.86815,120.68837 a 0.201325,0.201325 0 1 1 -0.40265,0 0.201325,0.201325 0 1 1 0.40265,0 z"
               style="font-size:5.64444px;font-family:Sniglet;-inkscape-font-specification:Sniglet;text-align:center;text-anchor:middle;fill:#ffffff;fill-opacity:1;fill-rule:evenodd;stroke:#ffffff;stroke-width:0.603973;stroke-linecap:round;stroke-linejoin:round;stroke-miterlimit:4;stroke-dasharray:none;stroke-opacity:1"
               id="path47226" />
            <path
               d="m 195.05574,116.76255 a 0.20131997,0.60395991 30.000727 1 1 -0.34869,-0.20133 0.20131997,0.60395991 30.000727 1 1 0.34869,0.20133 z"
               style="font-size:5.64444px;font-family:Sniglet;-inkscape-font-specification:Sniglet;text-align:center;text-anchor:middle;fill:#ffffff;fill-opacity:1;fill-rule:evenodd;stroke:#ffffff;stroke-width:0.60396;stroke-linecap:round;stroke-linejoin:round;stroke-miterlimit:4;stroke-dasharray:none;stroke-opacity:1"
               id="path47228" />
            <path
               d="m 198.92801,114.60838 -0.18119,0.58383 0.20132,0.0604 c 1.26834,0.40265 2.27497,1.00259 3.18093,2.71788 0.90596,1.71528 1.3086,4.15131 1.10729,8.15364 l -0.0202,0.20132 h 0.90596 l 0.0202,-0.20132 c 0.20132,-4.05065 -0.35433,-6.78464 -1.3086,-8.59253 -0.95428,-1.80789 -2.33134,-2.67359 -3.70035,-2.88297 z"
               style="font-size:5.64444px;font-family:Sniglet;-inkscape-font-specification:Sniglet;text-align:center;text-anchor:middle;fill:#ffffff;fill-opacity:1;fill-rule:evenodd;stroke:none;stroke-width:0.603973;stroke-linecap:round;stroke-linejoin:round;stroke-miterlimit:4;stroke-dasharray:none;stroke-opacity:1"
               id="path47230" />
          </g>
          <path
             d="m 193.32664,131.89851 0.74641,-0.59215 -0.0697,-0.0995 -0.17913,0.1443 q -0.13436,-0.13933 -0.16919,-0.43291 l -0.0299,-0.209 q -0.0398,-0.30354 -0.14928,-0.49263 -0.0995,-0.17914 -0.38316,-0.44785 -0.0498,-0.0299 -0.0597,-0.0498 l 0.75636,-0.69167 -0.66181,-0.7066 -0.90067,0.87579 v -1.29876 q 0,-0.34335 0.0498,-0.4578 0.0647,-0.15425 0.32842,-0.32842 l -0.0199,-0.10449 q -0.16421,0.0398 -0.29358,0.0846 -0.12441,0.0398 -0.209,0.0846 -0.16421,0.0846 -0.33837,0.26871 -0.19407,-0.22392 -0.53742,-0.32344 l -0.0498,0.0846 q 0.21397,0.1443 0.27866,0.30354 0.0697,0.16918 0.0697,0.49263 v 2.78162 q 0,0.2289 -0.0149,0.30354 -0.0498,0.13933 -0.209,0.19905 v 0.0945 q 0.53244,0.15924 0.84594,0.51751 l 0.89569,-0.73148 0.01,0.0896 q 0.0299,0.24383 0.0945,0.36325 0.0448,0.0945 0.19904,0.27866 z m -0.75139,-0.54239 -0.34832,-0.24383 v -0.67177 l 0.30354,-0.26373 q 0.22392,0.16421 0.31349,0.32345 0.0945,0.14928 0.15426,0.50258 z m 0.64192,-1.98545 -0.99024,0.89072 v -0.89072 l 0.52746,-0.49263 z"
             style="font-size:4.97607px;font-family:'Old English Five';-inkscape-font-specification:'Old English Five';text-align:center;text-anchor:middle;stroke-width:0.264476;stroke-linejoin:bevel"
             id="path4631" />
          <path
             d="m 195.44146,131.89851 1.03005,-0.6867 -0.0697,-0.0995 -0.50755,0.33838 q -0.14929,-0.0846 -0.30354,-0.15924 -0.14929,-0.0746 -0.30852,-0.1443 v -0.64689 l 1.27885,-1.06986 -0.85589,-1.10966 q -0.31846,0.18909 -0.64191,0.35828 -0.32344,0.16421 -0.65684,0.30851 -0.0249,0.01 -0.0448,0.0199 -0.0149,0.005 -0.0348,0.0149 l 0.0348,0.0746 h 0.0249 q 0.13435,0 0.16918,0.0647 0.0348,0.0647 0.0348,0.3334 v 1.25397 q 0,0.2488 -0.0249,0.36325 -0.0448,0.17914 -0.20401,0.26871 v 0.0697 q 0.4976,0.0796 1.0798,0.44784 z m 0.55732,-2.23425 -0.71655,0.59713 v -1.50775 z"
             style="font-size:4.97607px;font-family:'Old English Five';-inkscape-font-specification:'Old English Five';text-align:center;text-anchor:middle;stroke-width:0.264476;stroke-linejoin:bevel"
             id="path4633" />
          <path
             d="m 197.50653,128.32072 -0.69665,0.52746 0.0796,0.10947 q 0.13435,-0.0746 0.17416,-0.0746 0.0498,0 0.0796,0.0199 0.0298,0.0149 0.0448,0.0647 0.0199,0.0448 0.0249,0.13435 0.005,0.0896 0.005,0.2289 v 1.80631 l -0.27368,0.25876 0.6021,0.50258 0.60708,-0.48765 -0.23885,-0.25876 v -1.94067 l 0.48765,-0.40306 0.27369,0.28364 v 1.77148 q 0,0.44785 0.0547,0.6021 0.0547,0.15426 0.29857,0.36823 0.01,0.01 0.0299,0.0249 0.0199,0.0199 0.0448,0.0398 l 0.74143,-0.59215 -0.0846,-0.13933 q -0.0199,0.0149 -0.0348,0.0249 -0.01,0.01 -0.0199,0.0199 -0.11445,0.0796 -0.16421,0.0796 -0.13435,0 -0.16421,-0.2289 -0.005,-0.0249 -0.005,-0.10449 0,-0.0846 0,-0.21895 v -1.19923 q 0,-0.36823 0.0647,-0.52747 0.0647,-0.16918 0.29856,-0.38813 l -0.1045,-0.10948 -0.32842,0.31847 -0.51751,-0.51253 -0.87081,0.7265 q -0.005,-0.0249 -0.005,-0.0896 0,-0.20401 -0.0796,-0.32842 -0.0597,-0.0896 -0.24881,-0.2488 -0.0448,-0.0348 -0.0746,-0.0597 z"
             style="font-size:4.97607px;font-family:'Old English Five';-inkscape-font-specification:'Old English Five';text-align:center;text-anchor:middle;stroke-width:0.264476;stroke-linejoin:bevel"
             id="path4635" />
          <path
             d="m 200.23342,127.0966 v 0.8111 l 0.87579,0.67177 q -0.21895,0.17417 -0.67675,0.28862 v 1.57243 q 0,0.47273 -0.0348,0.60708 -0.0299,0.12938 -0.16421,0.25876 v 0.0746 q 0.18411,0.01 0.34335,0.0498 0.16421,0.0348 0.30851,0.0896 0.14431,0.0547 0.31349,0.15426 0.17417,0.0945 0.36326,0.22392 0.40804,-0.31349 1.03004,-0.56229 v -2.2044 q 0,-0.24881 0.0199,-0.32842 0.0299,-0.17914 0.13933,-0.28862 l -0.0348,-0.11942 q -0.22393,0.0746 -0.34833,0.28364 z m 1.67196,4.22469 -0.74641,-0.35828 v -2.08497 q 0.0697,-0.0498 0.10947,-0.0796 0.0448,-0.0299 0.0697,-0.0498 l 0.56728,0.41799 z"
             style="font-size:4.97607px;font-family:'Old English Five';-inkscape-font-specification:'Old English Five';text-align:center;text-anchor:middle;stroke-width:0.264476;stroke-linejoin:bevel"
             id="path4637" />
          <path
             d="m 205.27915,131.89851 0.74641,-0.5822 -0.0697,-0.0945 q -0.12938,0.0945 -0.19904,0.0945 -0.14928,0 -0.18411,-0.19904 -0.0149,-0.0746 -0.0149,-0.31349 v -1.22412 q 0,-0.42794 0.0448,-0.6021 0.0448,-0.17914 0.21397,-0.43789 l -0.0995,-0.0647 q -0.14928,0.15923 -0.31847,0.15923 -0.34832,0 -0.95043,-0.31349 -0.38315,0.29856 -0.831,0.29856 -0.0498,0 -0.0945,0 -0.0448,0 -0.0846,-0.005 l 0.60708,1.0798 -0.0846,0.0945 q -0.57723,0.66679 -0.57723,1.18928 0,0.51253 0.5424,0.92057 l 0.9355,-0.75138 q 0.0199,0.12937 0.0448,0.23387 0.0299,0.1045 0.0697,0.17416 0.0846,0.14431 0.30354,0.34335 z m -1.1644,-2.09492 0.74641,0.31349 v 0.86086 l -0.45283,0.36325 q -0.43789,-0.3732 -0.43789,-0.78622 0,-0.37818 0.14431,-0.75138 z m -0.45283,-1.06488 1.19924,0.40306 v 0.83598 l -0.67177,-0.28861 z"
             style="font-size:4.97607px;font-family:'Old English Five';-inkscape-font-specification:'Old English Five';text-align:center;text-anchor:middle;stroke-width:0.264476;stroke-linejoin:bevel"
             id="path4639" />
          <path
             d="m 207.28948,131.89851 0.66679,-0.54239 -0.0945,-0.10947 -0.14431,0.10947 -0.34335,-0.23885 v -3.12995 q 0,-0.38813 0.0647,-0.53741 0.0647,-0.16421 0.29856,-0.32842 l -0.0398,-0.11445 q -0.49263,0.1244 -0.78124,0.45282 -0.1244,-0.10948 -0.26373,-0.18909 -0.13933,-0.0846 -0.29359,-0.14928 l -0.0348,0.10449 q 0.20899,0.11445 0.27866,0.27369 0.0647,0.1443 0.0647,0.51751 v 2.76172 q 0,0.22392 -0.0299,0.30354 -0.0448,0.1244 -0.20402,0.20899 v 0.10948 q 0.49761,0.12937 0.85589,0.4976 z"
             style="font-size:4.97607px;font-family:'Old English Five';-inkscape-font-specification:'Old English Five';text-align:center;text-anchor:middle;stroke-width:0.264476;stroke-linejoin:bevel"
             id="path4641" />
          <path
             d="m 209.14555,131.89851 0.66679,-0.54239 -0.0945,-0.10947 -0.1443,0.10947 -0.34335,-0.23885 v -3.12995 q 0,-0.38813 0.0647,-0.53741 0.0647,-0.16421 0.29856,-0.32842 l -0.0398,-0.11445 q -0.49263,0.1244 -0.78124,0.45282 -0.1244,-0.10948 -0.26373,-0.18909 -0.13933,-0.0846 -0.29359,-0.14928 l -0.0348,0.10449 q 0.20899,0.11445 0.27866,0.27369 0.0647,0.1443 0.0647,0.51751 v 2.76172 q 0,0.22392 -0.0299,0.30354 -0.0448,0.1244 -0.20402,0.20899 v 0.10948 q 0.49761,0.12937 0.85589,0.4976 z"
             style="font-size:4.97607px;font-family:'Old English Five';-inkscape-font-specification:'Old English Five';text-align:center;text-anchor:middle;stroke-width:0.264476;stroke-linejoin:bevel"
             id="path4643" />
          <path
             d="m 212.20085,131.89851 0.74641,-0.59215 -0.0697,-0.0995 -0.17913,0.1443 q -0.13436,-0.13933 -0.16919,-0.43291 l -0.0299,-0.209 q -0.0398,-0.30354 -0.14928,-0.49263 -0.0995,-0.17914 -0.38316,-0.44785 -0.0498,-0.0299 -0.0597,-0.0498 l 0.75636,-0.69167 -0.66181,-0.7066 -0.90067,0.87579 v -1.29876 q 0,-0.34335 0.0498,-0.4578 0.0647,-0.15425 0.32842,-0.32842 l -0.0199,-0.10449 q -0.16421,0.0398 -0.29358,0.0846 -0.12441,0.0398 -0.209,0.0846 -0.16421,0.0846 -0.33837,0.26871 -0.19407,-0.22392 -0.53742,-0.32344 l -0.0498,0.0846 q 0.21397,0.1443 0.27866,0.30354 0.0697,0.16918 0.0697,0.49263 v 2.78162 q 0,0.2289 -0.0149,0.30354 -0.0498,0.13933 -0.209,0.19905 v 0.0945 q 0.53244,0.15924 0.84594,0.51751 l 0.89569,-0.73148 0.01,0.0896 q 0.0299,0.24383 0.0945,0.36325 0.0448,0.0945 0.19904,0.27866 z m -0.75139,-0.54239 -0.34832,-0.24383 v -0.67177 l 0.30354,-0.26373 q 0.22392,0.16421 0.31349,0.32345 0.0946,0.14928 0.15426,0.50258 z m 0.64192,-1.98545 -0.99024,0.89072 v -0.89072 l 0.52746,-0.49263 z"
             style="font-size:4.97607px;font-family:'Old English Five';-inkscape-font-specification:'Old English Five';text-align:center;text-anchor:middle;stroke-width:0.264476;stroke-linejoin:bevel"
             id="path4645" />
          <path
             d="m 213.75338,128.32072 -0.69665,0.52746 0.0796,0.10947 q 0.13435,-0.0746 0.17416,-0.0746 0.0498,0 0.0796,0.0199 0.0299,0.0149 0.0448,0.0647 0.0199,0.0448 0.0249,0.13435 0.005,0.0896 0.005,0.2289 v 1.80631 l -0.27369,0.25876 0.60211,0.50258 0.60708,-0.48765 -0.23885,-0.25876 v -1.94067 l 0.48765,-0.40306 0.27369,0.28364 v 1.77148 q 0,0.44785 0.0547,0.6021 0.0547,0.15426 0.29857,0.36823 0.01,0.01 0.0299,0.0249 0.0199,0.0199 0.0448,0.0398 l 0.74143,-0.59215 -0.0846,-0.13933 q -0.0199,0.0149 -0.0348,0.0249 -0.01,0.01 -0.0199,0.0199 -0.11445,0.0796 -0.16421,0.0796 -0.13435,0 -0.16421,-0.2289 -0.005,-0.0249 -0.005,-0.10449 0,-0.0846 0,-0.21895 v -1.19923 q 0,-0.36823 0.0647,-0.52747 0.0647,-0.16918 0.29857,-0.38813 l -0.1045,-0.10948 -0.32842,0.31847 -0.51751,-0.51253 -0.87081,0.7265 q -0.005,-0.0249 -0.005,-0.0896 0,-0.20401 -0.0796,-0.32842 -0.0597,-0.0896 -0.2488,-0.2488 -0.0448,-0.0348 -0.0746,-0.0597 z"
             style="font-size:4.97607px;font-family:'Old English Five';-inkscape-font-specification:'Old English Five';text-align:center;text-anchor:middle;stroke-width:0.264476;stroke-linejoin:bevel"
             id="path4647" />
          <path
             d="m 217.13213,131.89851 0.73148,-0.57225 -0.0846,-0.11445 -0.209,0.16919 -0.19904,-0.16919 v -2.18449 l 0.23885,-0.21895 -0.59215,-0.48765 -0.5822,0.46775 0.24383,0.20899 v 1.73168 q 0,0.2488 -0.0149,0.31349 -0.0448,0.16918 -0.209,0.21895 v 0.0647 q 0.28862,0.17914 0.67675,0.57225 z m 0.12938,-4.991 -0.17417,0.8111 0.17417,0.0149 0.5822,-0.80115 z"
             style="font-size:4.97607px;font-family:'Old English Five';-inkscape-font-specification:'Old English Five';text-align:center;text-anchor:middle;stroke-width:0.264476;stroke-linejoin:bevel"
             id="path4649" />
          <path
             d="m 219.04294,131.7144 -0.8111,0.95043 0.0647,0.0796 q 0.49263,-0.1443 0.94545,-0.1443 0.39311,0 0.8111,0.17416 l 0.15923,-0.0846 q 0.46278,-0.24383 0.60708,-0.36326 0.14431,-0.11942 0.14431,-0.29856 0,-0.13435 -0.0945,-0.28861 -0.01,-0.0199 -0.0547,-0.0846 -0.0398,-0.0647 -0.11445,-0.17913 -0.0398,-0.0498 -0.0647,-0.0846 -0.0199,-0.0348 -0.0299,-0.0547 -0.0896,-0.13436 -0.1244,-0.24881 -0.0249,-0.1244 -0.0249,-0.35827 v -1.63216 q 0.14431,0.0448 0.27866,0.0846 0.13435,0.0348 0.25876,0.0697 v -0.74641 l -0.55235,0.30354 -0.98028,-0.48765 q -0.5623,0.36823 -1.1644,0.43292 v 2.41339 z m 0.38813,0.36823 q -0.11445,0 -0.26373,0.0149 -0.14928,0.0199 -0.32842,0.0547 l 0.92555,-1.08976 q 0.0249,0.31349 0.24382,0.64689 0.2289,0.32842 0.55732,0.55732 l -0.1244,0.0697 q -0.53244,-0.25378 -1.01014,-0.25378 z m -0.0149,-0.8111 -0.43789,-0.32345 v -2.14468 l 0.78622,0.29358 v 1.75158 z"
             style="font-size:4.97607px;font-family:'Old English Five';-inkscape-font-specification:'Old English Five';text-align:center;text-anchor:middle;stroke-width:0.264476;stroke-linejoin:bevel"
             id="path4651" />
          <path
             d="m 221.28217,131.41583 0.59215,0.48268 0.62201,-0.4578 -0.22393,-0.25875 v -1.89588 l 0.53742,-0.42297 q 0.14928,0.12938 0.19407,0.23885 0.0298,0.0896 0.0298,0.30354 v 1.69684 q 0,0.67675 -0.19406,0.9355 -0.19407,0.26373 -0.94048,0.62699 l -0.0846,0.0448 0.0448,0.11943 q 1.12459,-0.40306 1.50775,-0.82105 0.38813,-0.40804 0.38813,-1.22412 v -1.40325 q 0,-0.43789 -0.0896,-0.62698 -0.0796,-0.18909 -0.40803,-0.43292 l -0.98527,0.80612 v -1.26392 q 0,-0.30354 0.0846,-0.46277 0.0846,-0.15924 0.33837,-0.30852 l -0.0398,-0.0846 q -0.55234,0.0896 -0.82603,0.41799 -0.28363,-0.26374 -0.51253,-0.34833 l -0.0547,0.0945 q 0.18412,0.15923 0.23885,0.29358 0.0597,0.13436 0.0597,0.40804 v 3.30909 z"
             style="font-size:4.97607px;font-family:'Old English Five';-inkscape-font-specification:'Old English Five';text-align:center;text-anchor:middle;stroke-width:0.264476;stroke-linejoin:bevel"
             id="path4653" />
          <path
             d="m 225.42723,127.4101 -0.99522,1.31866 v 0.11942 h 0.29857 v 1.78641 q 0,0.33837 -0.0398,0.4578 -0.0398,0.11445 -0.18411,0.22392 v 0.0896 q 0.4777,0.12938 0.83598,0.49263 l 0.74143,-0.61205 -0.1045,-0.11943 -0.21894,0.17416 q -0.0746,-0.0547 -0.15924,-0.11445 -0.0796,-0.0597 -0.17416,-0.1244 v -2.25416 h 0.59215 v -0.38316 h -0.59215 z"
             style="font-size:4.97607px;font-family:'Old English Five';-inkscape-font-specification:'Old English Five';text-align:center;text-anchor:middle;stroke-width:0.264476;stroke-linejoin:bevel"
             id="path4655" />
        </g>
      </g>
    </g>
  </g>
  <style
     type="text/css"
     id="style10296">
	.st0{fill:#75AADB;}
	.st1{fill:#4D4D4D;}
	.st2{fill:#FFFFFF;}
	.st3{fill:url(#SVGID_1_);}
	.st4{fill:url(#SVGID_2_);}
	.st5{fill:url(#SVGID_3_);}
	.st6{fill:url(#SVGID_4_);}
	.st7{fill:url(#SVGID_5_);}
	.st8{fill:url(#SVGID_6_);}
	.st9{fill:url(#SVGID_7_);}
	.st10{fill:url(#SVGID_8_);}
	.st11{fill:url(#SVGID_9_);}
	.st12{fill:url(#SVGID_10_);}
	.st13{opacity:0.18;fill:url(#SVGID_11_);}
	.st14{opacity:0.3;}
</style>
  <style
     type="text/css"
     id="style10296-7">
	.st0{fill:#75AADB;}
	.st1{fill:#4D4D4D;}
	.st2{fill:#FFFFFF;}
	.st3{fill:url(#SVGID_1_);}
	.st4{fill:url(#SVGID_2_);}
	.st5{fill:url(#SVGID_3_);}
	.st6{fill:url(#SVGID_4_);}
	.st7{fill:url(#SVGID_5_);}
	.st8{fill:url(#SVGID_6_);}
	.st9{fill:url(#SVGID_7_);}
	.st10{fill:url(#SVGID_8_);}
	.st11{fill:url(#SVGID_9_);}
	.st12{fill:url(#SVGID_10_);}
	.st13{opacity:0.18;fill:url(#SVGID_11_);}
	.st14{opacity:0.3;}
</style>
  <style
     type="text/css"
     id="style10296-4">
	.st0{fill:#75AADB;}
	.st1{fill:#4D4D4D;}
	.st2{fill:#FFFFFF;}
	.st3{fill:url(#SVGID_1_);}
	.st4{fill:url(#SVGID_2_);}
	.st5{fill:url(#SVGID_3_);}
	.st6{fill:url(#SVGID_4_);}
	.st7{fill:url(#SVGID_5_);}
	.st8{fill:url(#SVGID_6_);}
	.st9{fill:url(#SVGID_7_);}
	.st10{fill:url(#SVGID_8_);}
	.st11{fill:url(#SVGID_9_);}
	.st12{fill:url(#SVGID_10_);}
	.st13{opacity:0.18;fill:url(#SVGID_11_);}
	.st14{opacity:0.3;}
</style>
  <style
     type="text/css"
     id="style10296-9">
	.st0{fill:#75AADB;}
	.st1{fill:#4D4D4D;}
	.st2{fill:#FFFFFF;}
	.st3{fill:url(#SVGID_1_);}
	.st4{fill:url(#SVGID_2_);}
	.st5{fill:url(#SVGID_3_);}
	.st6{fill:url(#SVGID_4_);}
	.st7{fill:url(#SVGID_5_);}
	.st8{fill:url(#SVGID_6_);}
	.st9{fill:url(#SVGID_7_);}
	.st10{fill:url(#SVGID_8_);}
	.st11{fill:url(#SVGID_9_);}
	.st12{fill:url(#SVGID_10_);}
	.st13{opacity:0.18;fill:url(#SVGID_11_);}
	.st14{opacity:0.3;}
</style>
  <style
     type="text/css"
     id="style10296-2">
	.st0{fill:#75AADB;}
	.st1{fill:#4D4D4D;}
	.st2{fill:#FFFFFF;}
	.st3{fill:url(#SVGID_1_);}
	.st4{fill:url(#SVGID_2_);}
	.st5{fill:url(#SVGID_3_);}
	.st6{fill:url(#SVGID_4_);}
	.st7{fill:url(#SVGID_5_);}
	.st8{fill:url(#SVGID_6_);}
	.st9{fill:url(#SVGID_7_);}
	.st10{fill:url(#SVGID_8_);}
	.st11{fill:url(#SVGID_9_);}
	.st12{fill:url(#SVGID_10_);}
	.st13{opacity:0.18;fill:url(#SVGID_11_);}
	.st14{opacity:0.3;}
</style>
  <style
     type="text/css"
     id="style10296-6">
	.st0{fill:#75AADB;}
	.st1{fill:#4D4D4D;}
	.st2{fill:#FFFFFF;}
	.st3{fill:url(#SVGID_1_);}
	.st4{fill:url(#SVGID_2_);}
	.st5{fill:url(#SVGID_3_);}
	.st6{fill:url(#SVGID_4_);}
	.st7{fill:url(#SVGID_5_);}
	.st8{fill:url(#SVGID_6_);}
	.st9{fill:url(#SVGID_7_);}
	.st10{fill:url(#SVGID_8_);}
	.st11{fill:url(#SVGID_9_);}
	.st12{fill:url(#SVGID_10_);}
	.st13{opacity:0.18;fill:url(#SVGID_11_);}
	.st14{opacity:0.3;}
</style>
  <style
     type="text/css"
     id="style10296-3">
	.st0{fill:#75AADB;}
	.st1{fill:#4D4D4D;}
	.st2{fill:#FFFFFF;}
	.st3{fill:url(#SVGID_1_);}
	.st4{fill:url(#SVGID_2_);}
	.st5{fill:url(#SVGID_3_);}
	.st6{fill:url(#SVGID_4_);}
	.st7{fill:url(#SVGID_5_);}
	.st8{fill:url(#SVGID_6_);}
	.st9{fill:url(#SVGID_7_);}
	.st10{fill:url(#SVGID_8_);}
	.st11{fill:url(#SVGID_9_);}
	.st12{fill:url(#SVGID_10_);}
	.st13{opacity:0.18;fill:url(#SVGID_11_);}
	.st14{opacity:0.3;}
</style>
  <style
     type="text/css"
     id="style10296-7-1">
	.st0{fill:#75AADB;}
	.st1{fill:#4D4D4D;}
	.st2{fill:#FFFFFF;}
	.st3{fill:url(#SVGID_1_);}
	.st4{fill:url(#SVGID_2_);}
	.st5{fill:url(#SVGID_3_);}
	.st6{fill:url(#SVGID_4_);}
	.st7{fill:url(#SVGID_5_);}
	.st8{fill:url(#SVGID_6_);}
	.st9{fill:url(#SVGID_7_);}
	.st10{fill:url(#SVGID_8_);}
	.st11{fill:url(#SVGID_9_);}
	.st12{fill:url(#SVGID_10_);}
	.st13{opacity:0.18;fill:url(#SVGID_11_);}
	.st14{opacity:0.3;}
</style>
  <style
     type="text/css"
     id="style10296-4-5">
	.st0{fill:#75AADB;}
	.st1{fill:#4D4D4D;}
	.st2{fill:#FFFFFF;}
	.st3{fill:url(#SVGID_1_);}
	.st4{fill:url(#SVGID_2_);}
	.st5{fill:url(#SVGID_3_);}
	.st6{fill:url(#SVGID_4_);}
	.st7{fill:url(#SVGID_5_);}
	.st8{fill:url(#SVGID_6_);}
	.st9{fill:url(#SVGID_7_);}
	.st10{fill:url(#SVGID_8_);}
	.st11{fill:url(#SVGID_9_);}
	.st12{fill:url(#SVGID_10_);}
	.st13{opacity:0.18;fill:url(#SVGID_11_);}
	.st14{opacity:0.3;}
</style>
  <style
     type="text/css"
     id="style10296-9-5">
	.st0{fill:#75AADB;}
	.st1{fill:#4D4D4D;}
	.st2{fill:#FFFFFF;}
	.st3{fill:url(#SVGID_1_);}
	.st4{fill:url(#SVGID_2_);}
	.st5{fill:url(#SVGID_3_);}
	.st6{fill:url(#SVGID_4_);}
	.st7{fill:url(#SVGID_5_);}
	.st8{fill:url(#SVGID_6_);}
	.st9{fill:url(#SVGID_7_);}
	.st10{fill:url(#SVGID_8_);}
	.st11{fill:url(#SVGID_9_);}
	.st12{fill:url(#SVGID_10_);}
	.st13{opacity:0.18;fill:url(#SVGID_11_);}
	.st14{opacity:0.3;}
</style>
  <style
     type="text/css"
     id="style10296-2-4">
	.st0{fill:#75AADB;}
	.st1{fill:#4D4D4D;}
	.st2{fill:#FFFFFF;}
	.st3{fill:url(#SVGID_1_);}
	.st4{fill:url(#SVGID_2_);}
	.st5{fill:url(#SVGID_3_);}
	.st6{fill:url(#SVGID_4_);}
	.st7{fill:url(#SVGID_5_);}
	.st8{fill:url(#SVGID_6_);}
	.st9{fill:url(#SVGID_7_);}
	.st10{fill:url(#SVGID_8_);}
	.st11{fill:url(#SVGID_9_);}
	.st12{fill:url(#SVGID_10_);}
	.st13{opacity:0.18;fill:url(#SVGID_11_);}
	.st14{opacity:0.3;}
</style>
</svg>
